<?xml version="1.0" encoding="iso-8859-1"?>
<!-- Generator: Adobe Illustrator 19.0.0, SVG Export Plug-In . SVG Version: 6.00 Build 0)  -->
<svg version="1.1" id="Layer_1" xmlns="http://www.w3.org/2000/svg" xmlns:xlink="http://www.w3.org/1999/xlink" x="0px" y="0px"
	 viewBox="0 0 512 512" style="enable-background:new 0 0 512 512;" xml:space="preserve">
<g>
	<g>
		<path d="M373.516,0H138.483c-18.977,0-34.418,15.441-34.418,34.418v445.454c-0.004,0.654,0.009,1.31,0.045,1.97
			c0.886,16.91,15.458,30.158,33.175,30.158h235.008c19.654,0,35.643-15.99,35.643-35.644V34.418
			C407.936,15.441,392.495,0,373.516,0z M119.755,34.418c0-6.716,3.566-12.601,8.891-15.906v134.725h15.69V15.69h229.181
			c10.327,0,18.728,8.401,18.728,18.728v395.133c0,10.327-8.401,18.728-18.728,18.728H144.336V208.674h-15.69v240.474
			c-3.123,0.738-6.127,1.927-8.891,3.551V34.418z M392.246,476.356c0,11.004-8.952,19.954-19.953,19.954H137.285
			c-9.211,0-17.064-6.859-17.506-15.288c-0.016-0.295-0.023-0.59-0.023-0.883v-0.072c0.019-4.143,1.575-8.039,4.439-11.055
			c3.086-3.251,7.252-5.042,11.731-5.042h237.592c6.901,0,13.335-2.042,18.728-5.554V476.356z"/>
	</g>
</g>
<g>
	<g>
		<rect x="158.979" y="472.263" width="216.519" height="15.69"/>
	</g>
</g>
<g>
	<g>
		<rect x="135.968" y="472.263" width="14.644" height="15.69"/>
	</g>
</g>
<g>
	<g>
		<path d="M319.88,119.915c0-35.224-28.656-63.879-63.88-63.879c-35.224,0-63.879,28.656-63.879,63.879
			c0,17.842,15.442,46.369,30.417,69.84c-9.216,8.962-14.407,21.129-14.407,34.226c0,26.394,21.474,47.87,47.87,47.87
			s47.871-21.474,47.871-47.87c0-13.094-5.191-25.263-14.406-34.227C304.439,166.284,319.88,137.758,319.88,119.915z
			 M207.81,119.914c0-26.571,21.617-48.19,48.19-48.19c26.572,0,48.191,21.618,48.191,48.19c0,20.457-30.577,66.731-48.172,90.91
			c-5.327-7.343-13.393-18.797-21.406-31.465C211.292,142.488,207.81,126.289,207.81,119.914z M256,256.16
			c-17.744,0-32.18-14.436-32.18-32.18c0-7.756,2.709-15.028,7.591-20.771c8.894,13.077,16.335,22.898,18.362,25.544l6.227,8.125
			l6.227-8.125c2.027-2.645,9.468-12.466,18.362-25.544c4.882,5.745,7.592,13.017,7.592,20.771
			C288.181,241.724,273.745,256.16,256,256.16z"/>
	</g>
</g>
<g>
	<g>
		<rect x="192.451" y="303.859" width="127.61" height="15.69"/>
	</g>
</g>
<g>
	<g>
		<rect x="223.831" y="336.285" width="63.805" height="15.69"/>
	</g>
</g>
<g>
	<g>
		<rect x="158.979" y="415.78" width="64.851" height="15.69"/>
	</g>
</g>
<g>
	<g>
		<rect x="128.646" y="167.881" width="15.69" height="23.012"/>
	</g>
</g>
<g>
	<g>
		<path d="M256.001,80.05c-21.981,0-39.865,17.883-39.865,39.865s17.883,39.865,39.865,39.865c21.98,0,39.865-17.883,39.865-39.865
			C295.866,97.933,277.982,80.05,256.001,80.05z M256,144.09c-13.329,0-24.175-10.845-24.175-24.175S242.67,95.74,256,95.74
			c13.33,0,24.175,10.845,24.175,24.175C280.175,133.245,269.33,144.09,256,144.09z"/>
	</g>
</g>
<g>
	<g>
		<rect x="311.693" y="415.78" width="16.736" height="15.69"/>
	</g>
</g>
<g>
	<g>
		<rect x="336.797" y="415.78" width="15.69" height="15.69"/>
	</g>
</g>
<g>
	<g>
		<rect x="359.809" y="415.78" width="15.69" height="15.69"/>
	</g>
</g>
<g>
</g>
<g>
</g>
<g>
</g>
<g>
</g>
<g>
</g>
<g>
</g>
<g>
</g>
<g>
</g>
<g>
</g>
<g>
</g>
<g>
</g>
<g>
</g>
<g>
</g>
<g>
</g>
<g>
</g>
</svg>
