<?xml version="1.0" encoding="iso-8859-1"?>
<!-- Generator: Adobe Illustrator 19.0.0, SVG Export Plug-In . SVG Version: 6.00 Build 0)  -->
<svg version="1.1" id="Layer_1" xmlns="http://www.w3.org/2000/svg" xmlns:xlink="http://www.w3.org/1999/xlink" x="0px" y="0px"
	 viewBox="0 0 512 512" style="enable-background:new 0 0 512 512;" xml:space="preserve">
<g>
	<g>
		<path d="M437.019,74.981C388.668,26.629,324.38,0,256,0S123.332,26.629,74.981,74.981C26.629,123.332,0,187.62,0,256
			c0,68.38,26.628,132.668,74.981,181.019C123.333,485.371,187.62,512,256,512c68.38,0,132.668-26.628,181.019-74.981
			C485.371,388.667,512,324.38,512,256S485.372,123.332,437.019,74.981z M425.937,425.937
			c-45.393,45.39-105.744,70.39-169.937,70.39s-124.544-24.998-169.937-70.39C40.672,380.544,15.673,320.193,15.673,256
			s24.998-124.544,70.39-169.937c45.392-45.39,105.744-70.39,169.937-70.39s124.545,24.998,169.937,70.39
			c45.391,45.392,70.39,105.744,70.39,169.937S471.328,380.544,425.937,425.937z"/>
	</g>
</g>
<g>
	<g>
		<path d="M299.904,236.101L196.305,124.292l15.792,151.606l103.598,111.809L299.904,236.101z M223.409,233.203l-6.642-63.769
			l43.574,47.029c-4.38-0.488-8.875-0.257-13.307,0.77l-3.681-8.123l-14.275,6.47l3.681,8.123
			C229.066,226.359,225.929,229.587,223.409,233.203z M234.035,265.955c-5.489-12.111-0.102-26.431,12.01-31.921
			c3.219-1.46,6.595-2.149,9.92-2.149c9.18,0,17.971,5.267,22.001,14.159c2.659,5.867,2.875,12.419,0.606,18.448
			c-2.27,6.029-6.75,10.814-12.617,13.473c-5.867,2.658-12.419,2.875-18.448,0.606C241.479,276.302,236.694,271.823,234.035,265.955
			z M251.682,295.561c1.442,0.16,2.889,0.25,4.335,0.25c3.004,0,6.002-0.356,8.948-1.044l3.681,8.123l14.275-6.47l-3.677-8.113
			c3.642-2.609,6.794-5.805,9.35-9.467l6.638,63.725L251.682,295.561z"/>
	</g>
</g>
<g>
	<g>
		
			<rect x="248.007" y="248.174" transform="matrix(0.9108 -0.4128 0.4128 0.9108 -82.853 128.5084)" width="15.976" height="15.673"/>
	</g>
</g>
<g>
	<g>
		<rect x="78.122" y="292.61" transform="matrix(0.9659 -0.2588 0.2588 0.9659 -74.6881 33.5562)" width="23.964" height="15.673"/>
	</g>
</g>
<g>
	<g>
		<rect x="95.278" y="334.022" transform="matrix(0.866 -0.5 0.5 0.866 -156.562 99.4336)" width="23.964" height="15.673"/>
	</g>
</g>
<g>
	<g>
		<rect x="158.139" y="396.902" transform="matrix(0.5 -0.866 0.866 0.5 -265.4521 349.6934)" width="23.964" height="15.673"/>
	</g>
</g>
<g>
	<g>
		
			<rect x="199.567" y="414.066" transform="matrix(0.2588 -0.9659 0.9659 0.2588 -250.7299 517.052)" width="23.964" height="15.673"/>
	</g>
</g>
<g>
	<g>
		
			<rect x="292.61" y="409.929" transform="matrix(0.9659 -0.2588 0.2588 0.9659 -98.9582 92.1341)" width="15.673" height="23.964"/>
	</g>
</g>
<g>
	<g>
		<rect x="334.024" y="392.76" transform="matrix(0.866 -0.5 0.5 0.866 -156.5724 225.1614)" width="15.673" height="23.964"/>
	</g>
</g>
<g>
	<g>
		<rect x="396.912" y="329.896" transform="matrix(0.5 -0.866 0.866 0.5 -93.7036 521.4549)" width="15.673" height="23.964"/>
	</g>
</g>
<g>
	<g>
		<rect x="414.069" y="288.478" transform="matrix(0.2588 -0.9659 0.9659 0.2588 22.4899 630.23)" width="15.673" height="23.964"/>
	</g>
</g>
<g>
	<g>
		
			<rect x="409.921" y="203.712" transform="matrix(0.9659 -0.2588 0.2588 0.9659 -40.3758 116.3998)" width="23.964" height="15.673"/>
	</g>
</g>
<g>
	<g>
		<rect x="392.767" y="162.295" transform="matrix(0.866 -0.5 0.5 0.866 -30.8392 225.1735)" width="23.964" height="15.673"/>
	</g>
</g>
<g>
	<g>
		<rect x="329.876" y="99.424" transform="matrix(0.5 -0.866 0.866 0.5 78.0362 349.6849)" width="23.964" height="15.673"/>
	</g>
</g>
<g>
	<g>
		
			<rect x="288.454" y="82.278" transform="matrix(0.2588 -0.9659 0.9659 0.2588 135.6367 356.9916)" width="23.964" height="15.673"/>
	</g>
</g>
<g>
	<g>
		<rect x="203.71" y="78.109" transform="matrix(0.9659 -0.2588 0.2588 0.9659 -16.1086 57.8192)" width="15.673" height="23.964"/>
	</g>
</g>
<g>
	<g>
		<rect x="162.279" y="95.282" transform="matrix(0.866 -0.5 0.5 0.866 -30.8409 99.431)" width="15.673" height="23.964"/>
	</g>
</g>
<g>
	<g>
		<rect x="99.424" y="158.145" transform="matrix(0.5 -0.866 0.866 0.5 -93.7043 177.9512)" width="15.673" height="23.964"/>
	</g>
</g>
<g>
	<g>
		
			<rect x="82.276" y="199.562" transform="matrix(0.2588 -0.9659 0.9659 0.2588 -137.5462 243.837)" width="15.673" height="23.964"/>
	</g>
</g>
<g>
	<g>
		<rect x="391.837" y="248.686" width="48.065" height="15.673"/>
	</g>
</g>
<g>
	<g>
		<rect x="247.641" y="72.098" width="15.673" height="48.065"/>
	</g>
</g>
<g>
	<g>
		<path d="M479.916,248.686c-1.82-57.103-24.903-110.523-65.491-151.111c-40.588-40.588-94.008-63.671-151.111-65.491v-8.051
			h-15.673v8.09c-56.71,2.067-109.726,25.113-150.066,65.452c-40.587,40.588-63.671,94.007-65.491,151.111h-8.051v15.673h8.09
			c2.067,56.71,25.113,109.726,65.452,150.066c40.34,40.34,93.356,63.387,150.066,65.452v8.09h15.673v-8.051
			c57.103-1.819,110.523-24.903,151.111-65.491c40.34-40.34,63.387-93.356,65.452-150.066h8.09v-15.673H479.916z M256,464.374
			c-114.897,0-208.374-93.477-208.374-208.374S141.103,47.626,256,47.626S464.374,141.102,464.374,256S370.897,464.374,256,464.374z
			"/>
	</g>
</g>
<g>
	<g>
		
			<rect x="135.193" y="119.061" transform="matrix(0.7071 -0.7071 0.7071 0.7071 -59.2422 143.0283)" width="15.673" height="47.929"/>
	</g>
</g>
<g>
	<g>
		<rect x="72.098" y="248.686" width="48.065" height="15.673"/>
	</g>
</g>
<g>
	<g>
		
			<rect x="361.141" y="345.011" transform="matrix(0.7071 -0.7071 0.7071 0.7071 -152.834 368.9774)" width="15.673" height="47.929"/>
	</g>
</g>
<g>
	<g>
		<rect x="247.641" y="391.837" width="15.673" height="48.065"/>
	</g>
</g>
<g>
	<g>
		
			<rect x="119.064" y="361.127" transform="matrix(0.7071 -0.7071 0.7071 0.7071 -219.0047 209.2032)" width="47.929" height="15.673"/>
	</g>
</g>
<g>
	<g>
		
			<rect x="345.015" y="135.189" transform="matrix(0.7071 -0.7071 0.7071 0.7071 6.9374 302.7991)" width="47.929" height="15.673"/>
	</g>
</g>
<g>
</g>
<g>
</g>
<g>
</g>
<g>
</g>
<g>
</g>
<g>
</g>
<g>
</g>
<g>
</g>
<g>
</g>
<g>
</g>
<g>
</g>
<g>
</g>
<g>
</g>
<g>
</g>
<g>
</g>
</svg>
