<?xml version="1.0" encoding="iso-8859-1"?>
<!-- Generator: Adobe Illustrator 19.0.0, SVG Export Plug-In . SVG Version: 6.00 Build 0)  -->
<svg version="1.1" id="Layer_1" xmlns="http://www.w3.org/2000/svg" xmlns:xlink="http://www.w3.org/1999/xlink" x="0px" y="0px"
	 viewBox="0 0 512 512" style="enable-background:new 0 0 512 512;" xml:space="preserve">
<g>
	<g>
		<path d="M79.149,454.607c4.704-6.964,17.385-26.057,29.934-47.689c21.612-37.257,32.57-64.172,32.57-80.002
			c0-39.053-31.773-70.826-70.826-70.826C31.773,256.09,0,287.863,0,326.918c0,33.832,50.507,110.077,62.494,127.694
			c-8.884,3.373-15.216,11.969-15.216,22.02c0,12.985,10.564,23.549,23.549,23.549c10.381,0,19.208-6.755,22.334-16.097h17.443
			v-15.578H92.929C90.571,462.114,85.514,457.021,79.149,454.607z M15.578,326.918c0-30.464,24.784-55.248,55.248-55.248
			c30.465,0,55.248,24.785,55.248,55.248c0,23.691-35.43,82.178-55.248,112.148C51.008,409.095,15.578,350.609,15.578,326.918z
			 M70.826,484.602c-4.394,0-7.971-3.576-7.971-7.971s3.576-7.97,7.971-7.97c4.395,0,7.971,3.576,7.971,7.97
			C78.797,481.027,75.221,484.602,70.826,484.602z"/>
	</g>
</g>
<g>
	<g>
		<path d="M70.826,279.731c-26.02,0-47.187,21.169-47.187,47.187c0,26.02,21.169,47.187,47.187,47.187
			c26.02,0,47.188-21.169,47.188-47.187C118.014,300.898,96.846,279.731,70.826,279.731z M70.826,358.527
			c-17.431,0-31.609-14.18-31.609-31.609c0-17.43,14.179-31.609,31.609-31.609s31.61,14.18,31.61,31.609
			C102.436,344.348,88.257,358.527,70.826,358.527z"/>
	</g>
</g>
<g>
	<g>
		<rect x="62.832" y="381.269" width="15.578" height="15.578"/>
	</g>
</g>
<g>
	<g>
		<path d="M70.826,303.37c-12.985,0-23.549,10.564-23.549,23.548c0,12.985,10.564,23.549,23.549,23.549
			c12.985-0.001,23.549-10.564,23.549-23.549C94.375,313.934,83.811,303.37,70.826,303.37z M70.826,334.889
			c-4.394-0.001-7.971-3.576-7.971-7.971c0-4.394,3.576-7.97,7.971-7.97c4.395,0,7.971,3.576,7.971,7.97
			C78.797,331.313,75.221,334.889,70.826,334.889z"/>
	</g>
</g>
<g>
	<g>
		<path d="M512,82.647c0-39.054-31.773-70.827-70.826-70.827c-39.053,0-70.826,31.773-70.826,70.827
			c0,33.831,50.507,110.077,62.494,127.694c-6.431,2.442-11.523,7.62-13.844,14.109h-17.602v15.578h17.517
			c3.188,9.232,11.96,15.883,22.261,15.883c12.985,0,23.549-10.564,23.549-23.548c0-10.055-6.337-18.655-15.226-22.025
			c4.703-6.963,17.386-26.057,29.935-47.688C501.041,125.391,512,98.475,512,82.647z M441.174,240.332
			c-4.394,0-7.971-3.576-7.971-7.97c0-4.395,3.576-7.971,7.971-7.971c4.394,0,7.971,3.576,7.971,7.971
			C449.144,236.756,445.568,240.332,441.174,240.332z M441.174,194.794c-19.818-29.97-55.248-88.456-55.248-112.147
			c0-30.465,24.784-55.249,55.248-55.249c30.465,0,55.248,24.785,55.248,55.249C496.422,106.338,460.992,164.824,441.174,194.794z"
			/>
	</g>
</g>
<g>
	<g>
		<path d="M441.174,35.459c-26.02,0-47.188,21.169-47.188,47.187c0,26.02,21.169,47.188,47.188,47.188
			c26.02,0,47.188-21.169,47.188-47.188C488.361,56.627,467.192,35.459,441.174,35.459z M441.174,114.256
			c-17.43,0-31.61-14.18-31.61-31.61s14.179-31.609,31.61-31.609s31.61,14.18,31.61,31.609
			C472.783,100.076,458.603,114.256,441.174,114.256z"/>
	</g>
</g>
<g>
	<g>
		<rect x="433.59" y="138.25" width="15.578" height="15.578"/>
	</g>
</g>
<g>
	<g>
		<path d="M441.174,59.098c-12.985,0-23.549,10.564-23.549,23.549s10.564,23.548,23.549,23.548
			c12.985,0,23.549-10.564,23.549-23.548C464.723,69.662,454.159,59.098,441.174,59.098z M441.174,90.617
			c-4.394,0-7.971-3.576-7.971-7.97c0-4.395,3.576-7.971,7.971-7.971c4.394,0,7.971,3.576,7.971,7.971
			C449.144,87.041,445.568,90.617,441.174,90.617z"/>
	</g>
</g>
<g>
	<g>
		<rect x="125.144" y="468.506" width="24.925" height="15.578"/>
	</g>
</g>
<g>
	<g>
		<rect x="165.647" y="468.506" width="22.848" height="15.578"/>
	</g>
</g>
<g>
	<g>
		<rect x="204.073" y="468.506" width="24.925" height="15.578"/>
	</g>
</g>
<g>
	<g>
		<rect x="244.576" y="468.506" width="22.848" height="15.578"/>
	</g>
</g>
<g>
	<g>
		<rect x="283.002" y="468.506" width="24.925" height="15.578"/>
	</g>
</g>
<g>
	<g>
		<rect x="323.505" y="468.506" width="22.848" height="15.578"/>
	</g>
</g>
<g>
	<g>
		<polygon points="378.548,453.965 378.548,468.505 361.931,468.505 361.931,484.083 394.126,484.083 394.126,453.965 		"/>
	</g>
</g>
<g>
	<g>
		<rect x="378.548" y="413.463" width="15.578" height="23.886"/>
	</g>
</g>
<g>
	<g>
		<rect x="378.548" y="375.037" width="15.578" height="22.848"/>
	</g>
</g>
<g>
	<g>
		<polygon points="361.931,327.264 361.931,342.842 378.548,342.842 378.548,358.42 394.126,358.42 394.126,327.264 		"/>
	</g>
</g>
<g>
	<g>
		<rect x="323.505" y="327.265" width="22.848" height="15.578"/>
	</g>
</g>
<g>
	<g>
		<rect x="283.002" y="327.265" width="24.925" height="15.578"/>
	</g>
</g>
<g>
	<g>
		<rect x="244.576" y="327.265" width="22.848" height="15.578"/>
	</g>
</g>
<g>
	<g>
		<polygon points="212.381,327.264 212.381,311.685 196.803,311.685 196.803,342.842 228.998,342.842 228.998,327.264 		"/>
	</g>
</g>
<g>
	<g>
		<rect x="196.803" y="271.183" width="15.578" height="24.925"/>
	</g>
</g>
<g>
	<g>
		<rect x="196.803" y="232.757" width="15.578" height="22.848"/>
	</g>
</g>
<g>
	<g>
		<polygon points="180.187,184.984 180.187,200.562 196.803,200.562 196.803,217.178 212.381,217.178 212.381,184.984 		"/>
	</g>
</g>
<g>
	<g>
		<rect x="141.761" y="184.985" width="23.886" height="15.578"/>
	</g>
</g>
<g>
	<g>
		<rect x="102.296" y="184.985" width="22.848" height="15.578"/>
	</g>
</g>
<g>
	<g>
		<polygon points="70.101,184.984 70.101,169.406 54.523,169.406 54.523,200.562 86.718,200.562 86.718,184.984 		"/>
	</g>
</g>
<g>
	<g>
		<rect x="54.523" y="129.942" width="15.578" height="23.886"/>
	</g>
</g>
<g>
	<g>
		<rect x="54.523" y="90.478" width="15.578" height="22.848"/>
	</g>
</g>
<g>
	<g>
		<polygon points="54.523,42.704 54.523,74.898 70.101,74.898 70.101,58.282 86.718,58.282 86.718,42.704 		"/>
	</g>
</g>
<g>
	<g>
		<rect x="102.296" y="42.705" width="22.848" height="15.578"/>
	</g>
</g>
<g>
	<g>
		<rect x="141.761" y="42.705" width="23.886" height="15.578"/>
	</g>
</g>
<g>
	<g>
		<rect x="180.187" y="42.705" width="23.886" height="15.578"/>
	</g>
</g>
<g>
	<g>
		<rect x="220.69" y="42.705" width="23.886" height="15.578"/>
	</g>
</g>
<g>
	<g>
		<polygon points="259.116,42.704 259.116,58.282 275.732,58.282 275.732,74.898 291.31,74.898 291.31,42.704 		"/>
	</g>
</g>
<g>
	<g>
		<rect x="275.732" y="90.478" width="15.578" height="22.848"/>
	</g>
</g>
<g>
	<g>
		<rect x="275.732" y="129.942" width="15.578" height="23.886"/>
	</g>
</g>
<g>
	<g>
		<rect x="275.732" y="169.407" width="15.578" height="22.848"/>
	</g>
</g>
<g>
	<g>
		<polygon points="291.31,224.448 291.31,208.87 275.732,208.87 275.732,240.026 307.927,240.026 307.927,224.448 		"/>
	</g>
</g>
<g>
	<g>
		<rect x="323.505" y="224.449" width="22.848" height="15.578"/>
	</g>
</g>
<g>
	<g>
		<rect x="361.931" y="224.449" width="24.925" height="15.578"/>
	</g>
</g>
<g>
</g>
<g>
</g>
<g>
</g>
<g>
</g>
<g>
</g>
<g>
</g>
<g>
</g>
<g>
</g>
<g>
</g>
<g>
</g>
<g>
</g>
<g>
</g>
<g>
</g>
<g>
</g>
<g>
</g>
</svg>
