<?xml version="1.0" encoding="iso-8859-1"?>
<!-- Generator: Adobe Illustrator 19.0.0, SVG Export Plug-In . SVG Version: 6.00 Build 0)  -->
<svg version="1.1" id="Layer_1" xmlns="http://www.w3.org/2000/svg" xmlns:xlink="http://www.w3.org/1999/xlink" x="0px" y="0px"
	 viewBox="0 0 512 512" style="enable-background:new 0 0 512 512;" xml:space="preserve">
<g>
	<g>
		<path d="M425.332,76.122c-17.675,0-31.554,13.437-31.864,30.697h-0.015l-0.328,39.625l15.642,0.13l0.102-12.249
			c4.779,2.777,10.397,4.364,16.464,4.364h16.038c4.513,0,7.948,3.125,8.193,7.341V147c-0.25,4.211-3.682,7.332-8.193,7.332H72.494
			c-4.684,0-8.217-3.363-8.217-7.821c0-4.458,3.533-7.821,8.217-7.821h16.039c5.828,0,11.238-1.468,15.892-4.044l-0.146,11.769
			l15.639,0.194l0.481-38.698c0.002-0.168,0.013-0.334,0.013-0.502c0-0.056-0.004-0.112-0.004-0.168l0.003-0.257h-0.009
			c-0.226-17.342-14.138-30.863-31.869-30.863H0v320.13h39.625v-15.642H15.642V91.764h72.891c9.068,0,16.173,6.817,16.231,15.536
			l-0.003,0.278c-0.094,8.687-7.183,15.468-16.228,15.468H72.494c-13.372,0-23.847,10.295-23.857,23.442h-0.001l-0.668,265.452
			c0,12.975,11.232,23.937,24.527,23.937H441.37c13.071,0,23.705-10.738,23.705-23.933l0.129-266.697h-0.009
			c-0.646-12.549-10.877-22.202-23.825-22.202h-16.038c-9.104,0-16.237-6.871-16.237-15.642c0-8.771,7.133-15.642,16.237-15.642
			h71.026v288.847h-22.941v15.642H512V76.122H425.332z M449.434,411.941c0,4.575-3.617,8.295-8.064,8.295H72.494
			c-4.733,0-8.885-3.877-8.885-8.275l0.612-243.387c2.566,0.905,5.35,1.397,8.272,1.397h368.876c2.888,0,5.64-0.483,8.183-1.368
			L449.434,411.941z"/>
	</g>
</g>
<g>
	<g>
		<path d="M144.666,275.554c-21.999,0-39.897,17.898-39.897,39.897c0,19.56,28.234,54.367,33.894,61.146l6.003,7.191l6.003-7.191
			c5.66-6.779,33.893-41.586,33.893-61.146C184.562,293.452,166.665,275.554,144.666,275.554z M144.666,359.055
			c-11.531-15.028-24.256-34.914-24.256-43.602c0.001-13.375,10.881-24.256,24.256-24.256c13.374,0,24.255,10.881,24.255,24.256
			C168.92,324.141,156.196,344.026,144.666,359.055z"/>
	</g>
</g>
<g>
	<g>
		<rect x="137.646" y="387.91" width="13.556" height="15.642"/>
	</g>
</g>
<g>
	<g>
		<rect x="137.646" y="307.617" width="13.556" height="15.642"/>
	</g>
</g>
<g>
	<g>
		<rect x="353.499" y="285.719" width="15.642" height="44.839"/>
	</g>
</g>
<g>
	<g>
		<path d="M428.163,211.404h-74.805v63.756h74.805l-10.627-31.878L428.163,211.404z M406.461,259.517H369v-32.473h37.461
			l-5.411,16.236L406.461,259.517z"/>
	</g>
</g>
<g>
	<g>
		<rect x="353.499" y="187.699" width="14.599" height="15.642"/>
	</g>
</g>
<g>
	<g>
		<rect x="353.499" y="342.029" width="14.599" height="15.642"/>
	</g>
</g>
<g>
	<g>
		<polygon points="328.473,342.029 328.473,285.719 282.591,285.719 282.591,217.939 210.64,217.939 210.64,387.91 159.544,387.91 
			159.544,403.552 226.281,403.552 226.281,233.58 266.949,233.58 266.949,301.36 312.831,301.36 312.831,357.67 346.2,357.67 
			346.2,342.029 		"/>
	</g>
</g>
<g>
	<g>
		<rect x="80.293" y="187.699" width="79.251" height="15.642"/>
	</g>
</g>
<g>
	<g>
		<rect x="80.293" y="210.64" width="47.967" height="15.642"/>
	</g>
</g>
<g>
	<g>
		<rect x="80.293" y="236.709" width="23.984" height="15.642"/>
	</g>
</g>
<g>
	<g>
		<rect x="296.147" y="387.91" width="64.652" height="15.642"/>
	</g>
</g>
<g>
	<g>
		<rect x="368.098" y="387.91" width="16.684" height="15.642"/>
	</g>
</g>
<g>
	<g>
		<rect x="392.081" y="387.91" width="18.77" height="15.642"/>
	</g>
</g>
<g>
	<g>
		<rect x="417.108" y="387.91" width="15.642" height="15.642"/>
	</g>
</g>
<g>
</g>
<g>
</g>
<g>
</g>
<g>
</g>
<g>
</g>
<g>
</g>
<g>
</g>
<g>
</g>
<g>
</g>
<g>
</g>
<g>
</g>
<g>
</g>
<g>
</g>
<g>
</g>
<g>
</g>
</svg>
