<?xml version="1.0" encoding="iso-8859-1"?>
<!-- Generator: Adobe Illustrator 19.0.0, SVG Export Plug-In . SVG Version: 6.00 Build 0)  -->
<svg version="1.1" id="Layer_1" xmlns="http://www.w3.org/2000/svg" xmlns:xlink="http://www.w3.org/1999/xlink" x="0px" y="0px"
	 viewBox="0 0 512 512" style="enable-background:new 0 0 512 512;" xml:space="preserve">
<g>
	<g>
		<path d="M462.673,186.763c0-49.303-19.199-95.654-54.062-130.516C373.752,21.386,327.4,2.187,278.097,2.187
			c-46.691,0-90.728,17.229-124.873,48.664l-7.102-7.102l-11.041,11.039l7.105,7.105c-30.382,33.034-46.515,74.54-48.39,116.575
			l-0.107,0.03l0.094,0.329c-2.128,49.874,15.799,100.453,53.797,138.451c34.862,34.862,81.213,54.062,130.516,54.062
			c46.691,0,90.728-17.229,124.874-48.664l7.101,7.102l11.04-11.039l-7.102-7.102C445.444,277.491,462.673,233.454,462.673,186.763z
			 M447.061,186.763c0,8.355-0.606,16.616-1.789,24.735l-18.497-24.771h-38.583v41.313l-47.297,79.086l-25.832-19.422l-8.595-51.832
			l-11.9-15.838h13.478v-15.613H290.35v10.001l-9.287-12.359l6.469-25.745h14.334l43.316-34.744l35.448,8.816l48.159-40.223
			C440.733,133.605,447.061,159.696,447.061,186.763z M319.735,22.944c27.315,6.892,52.506,20.58,73.53,40.2L375.85,80.559h-5.823
			l-13.921-27.84l-37.004,12.335l-9.007,36.029l-28.63,14.323l-9.852-4.931V68.36l33.293-8.328L319.735,22.944z M208.494,32.714
			c8.646-3.912,17.617-7.079,26.834-9.473L229.9,50.382L217.41,69.118l-15.442-10.295L208.494,32.714z M133.111,99.982
			l22.504,16.878L136,143.012h-14.27v15.613h15.232l5.842,5.842l-33.101,9.457C111.648,148.181,119.452,122.806,133.111,99.982z
			 M205.051,339.211c-17.009-8.166-32.697-19.236-46.432-32.973c-22.021-22.022-36.67-48.664-43.968-76.835h27.242l14.299-7.245
			l18.865,18.823l-18.434,46.051l24.875,12.417l29.152,7.282L205.051,339.211z M397.573,306.239
			c-31.912,31.913-74.343,49.488-119.475,49.488c-20.201,0-39.857-3.532-58.274-10.284l8.677-50.348l-41.557-10.381l-10.479-5.231
			l16.92-42.274L159.22,203.12l-21.056,10.669H111.38c-1.251-7.784-1.963-15.637-2.125-23.501l63.352-18.101l-22.271-22.27
			l27.138-36.183l-35.719-26.79c5.038-6.873,10.661-13.449,16.868-19.658c9.563-9.563,20.076-17.828,31.318-24.729l-5.788,23.152
			l37.589,25.059l22.864-34.296l7.333-36.664c8.578-1.326,17.316-2.01,26.16-2.01c8.817,0,17.529,0.68,26.082,1.997l-10.804,27.026
			l-37.373,9.349v63.948l25.463,12.745l42.038-21.031l8.669-34.679l16.027-5.343l19.493,38.986L404.191,74.3
			c6.22,6.956,11.815,14.34,16.739,22.09l-44.223,36.936l-35.26-8.769l-45.069,36.148h-21.02l-11.253,44.779l27.585,36.712
			l8.994,54.231l44.702,33.61l58.419-97.684v-30.013h15.144l22.055,29.536C433.337,259.729,418.555,285.257,397.573,306.239z"/>
	</g>
</g>
<g>
	<g>
		<path d="M427.362,324.991l-11.039,11.038l6.868,6.868c-83.477,77.645-214.555,75.854-295.818-5.408
			c-81.261-81.262-83.053-212.34-5.408-295.818l6.868,6.868l11.039-11.039L102.374,0l-11.04,11.039l19.583,19.583
			c-39.768,42.509-61.589,97.645-61.589,156.142c0,61.107,23.796,118.556,67.005,161.766c42.17,42.17,97.905,65.836,157.364,66.952
			v28.343H254.96v15.613h53.084v-15.613h-18.736v-28.559c54.306-2.603,105.147-24.1,144.93-61.318l13.331,13.332l11.04-11.039
			L427.362,324.991z"/>
	</g>
</g>
<g>
	<g>
		<path d="M185.253,469.871V512h192.384v-42.129H185.253z M362.023,496.387H200.866v-10.903h161.158V496.387z"/>
	</g>
</g>
<g>
	<g>
		<rect x="184.183" y="186.732" width="17.695" height="15.613"/>
	</g>
</g>
<g>
	<g>
		<rect x="210.204" y="204.427" width="17.695" height="15.613"/>
	</g>
</g>
<g>
	<g>
		<rect x="227.899" y="107.626" width="17.695" height="15.613"/>
	</g>
</g>
<g>
	<g>
		<rect x="308.046" y="186.732" width="35.39" height="15.613"/>
	</g>
</g>
<g>
	<g>
		<rect x="254.962" y="292.9" width="17.695" height="15.613"/>
	</g>
</g>
<g>
	<g>
		<rect x="298.678" y="319.963" width="17.695" height="15.613"/>
	</g>
</g>
<g>
	<g>
		<rect x="166.488" y="80.563" width="17.695" height="15.613"/>
	</g>
</g>
<g>
</g>
<g>
</g>
<g>
</g>
<g>
</g>
<g>
</g>
<g>
</g>
<g>
</g>
<g>
</g>
<g>
</g>
<g>
</g>
<g>
</g>
<g>
</g>
<g>
</g>
<g>
</g>
<g>
</g>
</svg>
