<?xml version="1.0" encoding="iso-8859-1"?>
<!-- Generator: Adobe Illustrator 19.0.0, SVG Export Plug-In . SVG Version: 6.00 Build 0)  -->
<svg version="1.1" id="Layer_1" xmlns="http://www.w3.org/2000/svg" xmlns:xlink="http://www.w3.org/1999/xlink" x="0px" y="0px"
	 viewBox="0 0 512 512" style="enable-background:new 0 0 512 512;" xml:space="preserve">
<g>
	<g>
		<path d="M256,32.019c-66.123,0-119.919,53.796-119.919,119.919S189.877,271.857,256,271.857s119.919-53.796,119.919-119.919
			S322.123,32.019,256,32.019z M263.329,47.986c51.421,3.59,92.681,44.646,96.583,95.982h-8.341
			c-3.866-46.751-41.404-84.1-88.242-87.657V47.986z M247.624,48.062v8.342c-46.348,4.03-83.359,41.162-87.195,87.565h-8.341
			C155.963,92.98,196.691,52.132,247.624,48.062z M247.624,255.815c-51.012-4.077-91.783-45.046-95.55-96.142h8.334
			c3.73,46.512,40.789,83.764,87.216,87.8V255.815z M175.8,151.938c0-44.223,35.978-80.2,80.2-80.2s80.2,35.977,80.2,80.2
			c0,44.221-35.977,80.2-80.2,80.2C211.777,232.138,175.8,196.161,175.8,151.938z M263.329,255.89v-8.325
			c46.917-3.562,84.505-41.031,88.263-87.892h8.334C356.134,211.119,314.828,252.295,263.329,255.89z"/>
	</g>
</g>
<g>
	<g>
		<path d="M306.363,119.762c-6.063-6.063-14.125-9.402-22.701-9.402c-8.574,0-16.636,3.339-22.7,9.402l-3.021,3.021l-3.022-3.021
			c-6.063-6.063-14.124-9.402-22.7-9.402c-8.575,0-16.637,3.339-22.701,9.402c-12.516,12.517-12.516,32.883,0,45.401l48.422,48.421
			l48.42-48.42c6.064-6.063,9.403-14.126,9.403-22.701C315.766,133.887,312.427,125.825,306.363,119.762z M295.255,154.059
			l-37.315,37.315l-37.314-37.315c-3.097-3.097-4.803-7.215-4.803-11.595c0.002-4.382,1.708-8.499,4.805-11.596
			c3.096-3.097,7.214-4.803,11.594-4.803c4.38,0,8.498,1.706,11.594,4.803l14.127,14.127l14.127-14.127
			c3.096-3.097,7.214-4.803,11.593-4.803c4.381,0,8.498,1.706,11.594,4.803l0.001,0.001c3.097,3.097,4.803,7.215,4.803,11.595
			S298.354,150.96,295.255,154.059z"/>
	</g>
</g>
<g>
	<g>
		<path d="M306.523,388.12c42.827-73.526,101.416-183.703,101.416-236.183C407.938,68.159,339.78,0,256,0
			S104.062,68.159,104.062,151.938c0,52.479,58.589,162.657,101.416,236.183c-57.069,9.061-93.411,32.149-93.411,59.993
			c0,18.359,15.881,35.009,44.72,46.883C183.415,505.962,218.649,512,256,512s72.585-6.038,99.214-17.003
			c28.839-11.874,44.72-28.524,44.72-46.883C399.934,420.269,363.592,397.182,306.523,388.12z M190.851,330.111
			c-46.504-85.333-71.084-146.945-71.084-178.173c0-75.12,61.113-136.233,136.233-136.233s136.233,61.113,136.233,136.233
			c0,31.217-24.567,92.802-71.043,178.095c-26.439,48.52-53.149,92.082-65.19,111.361
			C243.966,422.132,217.285,378.618,190.851,330.111z M279.063,434.035c19.044,3.623,27.405,10.795,27.405,14.079
			c0,5.441-17.484,15.223-46.326,16.093l2.468-3.848C263.757,458.57,269.902,448.956,279.063,434.035z M251.859,464.207
			c-28.842-0.87-46.326-10.65-46.326-16.093c0-3.285,8.361-10.457,27.405-14.079c9.161,14.921,15.305,24.535,16.453,26.325
			L251.859,464.207z M349.234,480.475c-24.776,10.201-57.887,15.82-93.234,15.82c-75.567,0-128.228-25.392-128.228-48.18
			c0-9.056,8.201-18.544,23.094-26.715c15.74-8.637,38.097-15.225,63.193-18.671c3.592,6.063,7.019,11.786,10.227,17.098
			c-21.566,5.229-34.459,15.554-34.459,28.288c0,5.679,2.851,16.38,21.944,24.242c11.941,4.917,27.649,7.626,44.229,7.626
			s32.287-2.708,44.229-7.626c19.093-7.862,21.944-18.563,21.944-24.242c0-12.734-12.893-23.059-34.459-28.288
			c3.208-5.312,6.635-11.035,10.227-17.098c25.095,3.446,47.454,10.034,63.193,18.671c14.893,8.171,23.094,17.659,23.094,26.715
			C384.228,459.522,371.473,471.317,349.234,480.475z"/>
	</g>
</g>
<g>
	<g>
		<rect x="223.542" y="288.458" width="64.916" height="15.706"/>
	</g>
</g>
<g>
	<g>
		<rect x="247.624" y="312.54" width="16.753" height="15.706"/>
	</g>
</g>
<g>
	<g>
		<rect x="223.542" y="312.54" width="16.753" height="15.706"/>
	</g>
</g>
<g>
	<g>
		<rect x="271.706" y="312.54" width="16.753" height="15.706"/>
	</g>
</g>
<g>
</g>
<g>
</g>
<g>
</g>
<g>
</g>
<g>
</g>
<g>
</g>
<g>
</g>
<g>
</g>
<g>
</g>
<g>
</g>
<g>
</g>
<g>
</g>
<g>
</g>
<g>
</g>
<g>
</g>
</svg>
