<?xml version="1.0" encoding="iso-8859-1"?>
<!-- Generator: Adobe Illustrator 19.0.0, SVG Export Plug-In . SVG Version: 6.00 Build 0)  -->
<svg version="1.1" id="Layer_1" xmlns="http://www.w3.org/2000/svg" xmlns:xlink="http://www.w3.org/1999/xlink" x="0px" y="0px"
	 viewBox="0 0 512.004 512.004" style="enable-background:new 0 0 512.004 512.004;" xml:space="preserve">
<g>
	<g>
		<rect x="335.506" y="56.475" width="15.744" height="16.794"/>
	</g>
</g>
<g>
	<g>
		<path d="M366.309,271.642c-2.491-6.892-8.069-12.315-15.055-14.598v-73.568h-15.744v73.901
			c-9.053,3.392-15.514,12.131-15.514,22.352c0,13.159,10.705,23.864,23.864,23.864c10.48,0,19.398-6.794,22.596-16.207h17.336
			v-15.744H366.309z M343.859,287.849c-4.478,0-8.12-3.642-8.12-8.12c0-4.478,3.643-8.12,8.12-8.12s8.119,3.642,8.119,8.12
			C351.977,284.207,348.336,287.849,343.859,287.849z"/>
	</g>
</g>
<g>
	<g>
		<path d="M395.833,23.987c-10.954,0-19.866,8.912-19.866,19.866c0,0.04,0.005,0.079,0.006,0.12h-0.006l0.478,31.513l15.742-0.239
			l-0.18-11.907c1.238,0.242,2.516,0.378,3.826,0.378h27.985c4.478,0,8.119,3.642,8.119,8.12c0,4.478-3.642,8.12-8.119,8.12h-87.83
			v95.702h82.46c16.12,0,29.234-13.115,29.234-29.233v-34.732h39.979V23.987H395.833z M418.445,159.916H351.73V95.702h72.086
			c2.85,0,5.583-0.502,8.119-1.422v52.146h0.001C431.936,153.864,425.884,159.916,418.445,159.916z M471.915,95.95H447.68V71.839
			c0-13.159-10.705-23.864-23.863-23.864h-27.985c-2.269,0-4.115-1.844-4.121-4.112v-0.016c0.003-2.27,1.85-4.115,4.121-4.115
			h76.083V95.95z"/>
	</g>
</g>
<g>
	<g>
		<path d="M143.84,71.839C143.84,32.227,111.612,0,72,0C32.389,0,0.163,32.227,0.163,71.839c0,34.342,51.307,111.775,63.431,129.59
			c-9.021,3.408-15.456,12.13-15.456,22.33c0,10.226,6.468,18.968,15.526,22.357v18.178h15.744v-17.855
			c9.543-3.124,16.458-12.108,16.458-22.681c0-10.204-6.439-18.93-15.467-22.334c4.755-7.04,17.644-26.438,30.396-48.421
			C132.723,115.203,143.84,87.895,143.84,71.839z M72,231.878c-4.478,0-8.119-3.642-8.119-8.12s3.642-8.12,8.119-8.12
			c4.478,0,8.12,3.643,8.12,8.12C80.12,228.235,76.478,231.878,72,231.878z M71.999,185.697
			C51.893,155.298,15.907,95.909,15.907,71.839c0-30.931,25.163-56.095,56.094-56.095c30.932,0,56.095,25.164,56.095,56.095
			C128.096,95.898,92.106,155.295,71.999,185.697z"/>
	</g>
</g>
<g>
	<g>
		<path d="M72,23.987c-26.386,0-47.851,21.466-47.851,47.851c0,26.385,21.465,47.851,47.851,47.851
			c26.386,0,47.851-21.466,47.851-47.851C119.851,45.454,98.386,23.987,72,23.987z M72,103.946
			c-17.704,0-32.107-14.404-32.107-32.107c0-17.704,14.404-32.107,32.107-32.107c17.704,0,32.107,14.404,32.107,32.107
			C104.108,89.542,89.704,103.946,72,103.946z"/>
	</g>
</g>
<g>
	<g>
		<rect x="63.66" y="127.852" width="16.794" height="15.744"/>
	</g>
</g>
<g>
	<g>
		<path d="M72,47.975c-13.158,0-23.863,10.705-23.863,23.864S58.843,95.702,72,95.702c13.159,0,23.864-10.705,23.864-23.864
			S85.159,47.975,72,47.975z M72,79.958c-4.478,0-8.119-3.642-8.119-8.12c0-4.478,3.642-8.12,8.119-8.12
			c4.478,0,8.12,3.642,8.12,8.12C80.121,76.315,76.478,79.958,72,79.958z"/>
	</g>
</g>
<g>
	<g>
		<rect x="63.66" y="278.994" width="15.744" height="24.141"/>
	</g>
</g>
<g>
	<g>
		<rect x="63.66" y="319.928" width="15.744" height="24.141"/>
	</g>
</g>
<g>
	<g>
		<rect x="63.66" y="360.862" width="15.744" height="23.091"/>
	</g>
</g>
<g>
	<g>
		<rect x="63.66" y="399.697" width="15.744" height="24.141"/>
	</g>
</g>
<g>
	<g>
		<rect x="63.66" y="439.582" width="15.744" height="23.091"/>
	</g>
</g>
<g>
	<g>
		<rect x="167.57" y="278.994" width="15.744" height="24.141"/>
	</g>
</g>
<g>
	<g>
		<rect x="167.57" y="319.928" width="15.744" height="24.141"/>
	</g>
</g>
<g>
	<g>
		<rect x="167.57" y="360.862" width="15.744" height="23.091"/>
	</g>
</g>
<g>
	<g>
		<rect x="167.57" y="399.697" width="15.744" height="24.141"/>
	</g>
</g>
<g>
	<g>
		<rect x="167.57" y="439.582" width="15.744" height="23.091"/>
	</g>
</g>
<g>
	<g>
		<polygon points="167.574,72.219 167.574,103.707 183.317,103.707 183.317,87.963 200.111,87.963 200.111,72.219 		"/>
	</g>
</g>
<g>
	<g>
		<rect x="167.57" y="119.455" width="15.744" height="24.141"/>
	</g>
</g>
<g>
	<g>
		<rect x="271.48" y="119.455" width="15.744" height="24.141"/>
	</g>
</g>
<g>
	<g>
		<rect x="167.57" y="160.389" width="15.744" height="23.091"/>
	</g>
</g>
<g>
	<g>
		<rect x="167.57" y="200.274" width="15.744" height="24.141"/>
	</g>
</g>
<g>
	<g>
		<rect x="167.57" y="240.158" width="15.744" height="24.141"/>
	</g>
</g>
<g>
	<g>
		<rect x="271.48" y="278.994" width="15.744" height="24.141"/>
	</g>
</g>
<g>
	<g>
		<rect x="271.48" y="319.928" width="15.744" height="24.141"/>
	</g>
</g>
<g>
	<g>
		<rect x="271.48" y="160.389" width="15.744" height="23.091"/>
	</g>
</g>
<g>
	<g>
		<rect x="271.48" y="200.274" width="15.744" height="24.141"/>
	</g>
</g>
<g>
	<g>
		<rect x="271.48" y="240.158" width="15.744" height="24.141"/>
	</g>
</g>
<g>
	<g>
		<rect x="271.48" y="399.697" width="15.744" height="24.141"/>
	</g>
</g>
<g>
	<g>
		<rect x="271.48" y="439.582" width="15.744" height="23.091"/>
	</g>
</g>
<g>
	<g>
		<rect x="496.094" y="399.697" width="15.744" height="24.141"/>
	</g>
</g>
<g>
	<g>
		<rect x="496.094" y="439.582" width="15.744" height="23.091"/>
	</g>
</g>
<g>
	<g>
		<rect x="271.48" y="360.862" width="15.744" height="23.091"/>
	</g>
</g>
<g>
	<g>
		<polygon points="79.407,496.256 79.407,479.462 63.663,479.462 63.663,512 95.151,512 95.151,496.256 		"/>
	</g>
</g>
<g>
	<g>
		<polygon points="167.574,479.462 167.574,496.256 151.83,496.256 151.83,512 183.317,512 183.317,479.462 		"/>
	</g>
</g>
<g>
	<g>
		<rect x="111.942" y="496.26" width="24.141" height="15.744"/>
	</g>
</g>
<g>
	<g>
		<polygon points="496.098,479.462 496.098,496.256 479.304,496.256 479.304,512 511.842,512 511.842,479.462 		"/>
	</g>
</g>
<g>
	<g>
		<rect x="400.581" y="496.26" width="23.091" height="15.744"/>
	</g>
</g>
<g>
	<g>
		<rect x="438.367" y="496.26" width="25.19" height="15.744"/>
	</g>
</g>
<g>
	<g>
		<rect x="215.852" y="72.219" width="25.19" height="15.744"/>
	</g>
</g>
<g>
	<g>
		<polygon points="255.74,72.219 255.74,87.963 271.484,87.963 271.484,103.707 287.228,103.707 287.228,72.219 		"/>
	</g>
</g>
<g>
	<g>
		<polygon points="287.228,496.256 287.228,479.462 271.484,479.462 271.484,512 304.021,512 304.021,496.256 		"/>
	</g>
</g>
<g>
	<g>
		<rect x="319.762" y="496.26" width="23.091" height="15.744"/>
	</g>
</g>
<g>
	<g>
		<rect x="359.647" y="496.26" width="24.141" height="15.744"/>
	</g>
</g>
<g>
	<g>
		<rect x="438.367" y="271.646" width="25.19" height="15.744"/>
	</g>
</g>
<g>
	<g>
		<rect x="400.581" y="271.646" width="23.091" height="15.744"/>
	</g>
</g>
<g>
	<g>
		<polygon points="479.304,271.642 479.304,287.386 496.098,287.386 496.098,303.13 511.842,303.13 511.842,271.642 		"/>
	</g>
</g>
<g>
	<g>
		<rect x="496.094" y="319.928" width="15.744" height="24.141"/>
	</g>
</g>
<g>
	<g>
		<rect x="496.094" y="360.862" width="15.744" height="23.091"/>
	</g>
</g>
<g>
</g>
<g>
</g>
<g>
</g>
<g>
</g>
<g>
</g>
<g>
</g>
<g>
</g>
<g>
</g>
<g>
</g>
<g>
</g>
<g>
</g>
<g>
</g>
<g>
</g>
<g>
</g>
<g>
</g>
</svg>
