<?xml version="1.0" encoding="iso-8859-1"?>
<!-- Generator: Adobe Illustrator 19.0.0, SVG Export Plug-In . SVG Version: 6.00 Build 0)  -->
<svg version="1.1" id="Layer_1" xmlns="http://www.w3.org/2000/svg" xmlns:xlink="http://www.w3.org/1999/xlink" x="0px" y="0px"
	 viewBox="0 0 512 512" style="enable-background:new 0 0 512 512;" xml:space="preserve">
<g>
	<g>
		<path d="M349.671,489.626L312.7,208.65h14.064v-15.61h-62.439v-15.61h-15.61v15.61h-62.439v15.61h15.228l-36.97,280.976h-16.762
			v15.61h46.829v-15.61h-14.323l5.605-42.6l71.219-29.987l71.219,29.987l5.606,42.6H319.48v15.61h46.829v-15.61H349.671z
			 M315.49,349.505L272.3,329.18l38.433-15.825L315.49,349.505z M304.583,266.617l-27.667-11.857l24.713-10.592L304.583,266.617z
			 M217.248,208.65h79.708l2.558,19.44l-42.412,18.176l-42.412-18.176L217.248,208.65z M212.575,244.168l24.713,10.592
			l-27.667,11.857L212.575,244.168z M207.253,284.615l49.849-21.364l49.849,21.364l1.674,12.725l-55.459,22.836l-47.642-22.42
			L207.253,284.615z M203.387,314.002l30.228,14.225l-33.939,13.975L203.387,314.002z M188.242,429.094l5.118-38.895l43.629,18.371
			L188.242,429.094z M257.101,400.101l-61.63-25.95l1.857-14.101l55.42-22.82l65.161,30.664l0.823,6.257L257.101,400.101z
			 M277.215,408.57l43.629-18.371l5.118,38.895L277.215,408.57z"/>
	</g>
</g>
<g>
	<g>
		<path d="M257.102,60.418c-17.16,0-31.122,13.961-31.122,31.122c0,14.255,9.636,26.293,22.735,29.964v47.601h15.61v-47.3
			c13.688-3.267,23.899-15.593,23.899-30.266C288.224,74.379,274.262,60.418,257.102,60.418z M257.102,107.052
			c-8.553,0-15.512-6.959-15.512-15.512c0-8.554,6.959-15.512,15.512-15.512s15.512,6.959,15.512,15.512
			C272.614,100.094,265.655,107.052,257.102,107.052z"/>
	</g>
</g>
<g>
	<g>
		<rect x="303.87" y="82.732" width="15.61" height="16.65"/>
	</g>
</g>
<g>
	<g>
		<rect x="341.333" y="68.163" width="15.61" height="46.829"/>
	</g>
</g>
<g>
	<g>
		<rect x="379.837" y="53.594" width="15.61" height="75.967"/>
	</g>
</g>
<g>
	<g>
		<rect x="420.423" y="36.943" width="15.61" height="109.268"/>
	</g>
</g>
<g>
	<g>
		<rect x="458.927" y="22.374" width="15.61" height="138.406"/>
	</g>
</g>
<g>
	<g>
		<rect x="496.39" y="6.764" width="15.61" height="170.667"/>
	</g>
</g>
<g>
	<g>
		<rect x="193.561" y="82.732" width="15.61" height="16.65"/>
	</g>
</g>
<g>
	<g>
		<rect x="155.057" y="68.163" width="15.61" height="46.829"/>
	</g>
</g>
<g>
	<g>
		<rect x="117.594" y="53.594" width="15.61" height="75.967"/>
	</g>
</g>
<g>
	<g>
		<rect x="78.049" y="36.943" width="15.61" height="109.268"/>
	</g>
</g>
<g>
	<g>
		<rect x="39.545" y="22.374" width="15.61" height="138.406"/>
	</g>
</g>
<g>
	<g>
		<rect y="6.764" width="15.61" height="170.667"/>
	</g>
</g>
<g>
</g>
<g>
</g>
<g>
</g>
<g>
</g>
<g>
</g>
<g>
</g>
<g>
</g>
<g>
</g>
<g>
</g>
<g>
</g>
<g>
</g>
<g>
</g>
<g>
</g>
<g>
</g>
<g>
</g>
</svg>
