<?xml version="1.0" encoding="iso-8859-1"?>
<!-- Generator: Adobe Illustrator 19.0.0, SVG Export Plug-In . SVG Version: 6.00 Build 0)  -->
<svg version="1.1" id="Layer_1" xmlns="http://www.w3.org/2000/svg" xmlns:xlink="http://www.w3.org/1999/xlink" x="0px" y="0px"
	 viewBox="0 0 512 512" style="enable-background:new 0 0 512 512;" xml:space="preserve">
<g>
	<g>
		<path d="M448.566,76.488c-13.337,0-23.787,10.263-23.81,23.372h-0.001l-0.17,30.699l15.61,0.085l0.048-8.747
			c2.58,0.919,5.381,1.419,8.323,1.419h8.003c4.522,0,8.2,3.734,8.201,8.324v0.001c-0.001,4.59-3.679,8.324-8.201,8.324H248.494
			c-4.115,0-7.521-3.095-8.104-7.11v-2.255h-0.026c0.507-4.1,3.956-7.285,8.13-7.285h8.003c2.793,0,5.457-0.456,7.928-1.287
			l-0.098,8.481l15.608,0.181l0.341-29.557c0.021-0.408,0.031-0.819,0.031-1.232c0-0.156-0.008-0.309-0.011-0.465l0.01-0.913
			l-0.041-0.001c-0.702-12.464-10.887-22.037-23.768-22.037H24.413c-4.522,0-8.2-3.735-8.2-8.325c0-4.59,3.679-8.325,8.2-8.325H128
			v7.285h15.61V44.228H24.413c-13.124,0-23.802,10.728-23.81,23.919L0,371.368c0,12.991,10.951,23.559,24.413,23.559h192.043v-15.61
			H24.413c-4.772,0-8.803-3.64-8.803-7.934l0.558-280.766c2.57,0.957,5.348,1.481,8.245,1.481h232.084
			c4.576,0,8.042,3.218,8.187,7.527l-0.008,0.724c-0.229,4.224-3.662,7.358-8.178,7.358h-8.003
			c-13.13,0-23.811,10.736-23.811,23.935c0,0.711,0.036,1.411,0.098,2.106v309.646c0,13.442,10.638,24.378,23.713,24.378h208.075
			c12.776,0,23.171-10.936,23.171-24.362l0.64-311.752c0-0.005,0-0.01,0-0.017c0-13.199-10.682-23.935-23.811-23.935h-8.003
			c-4.676,0-8.201-3.356-8.201-7.805s3.526-7.805,8.201-7.805h47.824v287.219h-7.285v15.61H512V76.488H448.566z M464.13,443.394
			c0,4.217-2.891,8.768-7.561,8.768H248.494c-4.317,0-8.104-4.098-8.104-8.768V154.148c2.531,0.924,5.259,1.429,8.104,1.429h208.075
			c2.863,0,5.61-0.511,8.155-1.447L464.13,443.394z"/>
	</g>
</g>
<g>
	<g>
		<path d="M96.438,123.475c-17.542,0-31.814,14.271-31.814,31.814c0,15.464,21.662,40.389,26.005,45.227l5.809,6.474l5.809-6.474
			c4.343-4.838,26.005-29.763,26.005-45.227C128.252,137.747,113.98,123.475,96.438,123.475z M96.438,183.264
			c-10.144-12.572-16.204-23.794-16.204-27.975c0-8.935,7.269-16.204,16.204-16.204c8.935,0,16.204,7.269,16.204,16.204
			C112.642,159.469,106.581,170.693,96.438,183.264z"/>
	</g>
</g>
<g>
	<g>
		<path d="M304.514,323.549c-17.542,0-31.814,14.271-31.814,31.813c0,15.465,21.662,40.388,26.005,45.227l5.809,6.474l5.809-6.474
			c4.343-4.838,26.004-29.762,26.004-45.227C336.327,337.819,322.055,323.549,304.514,323.549z M304.511,383.34
			c-10.142-12.561-16.201-23.787-16.201-27.979c0-8.934,7.269-16.203,16.204-16.203c8.935,0,16.203,7.268,16.203,16.203
			C320.717,359.542,314.655,370.767,304.511,383.34z"/>
	</g>
</g>
<g>
	<g>
		<path d="M400.548,203.505c-17.542,0-31.814,14.271-31.814,31.813c0,15.465,21.662,40.389,26.005,45.228l5.809,6.474l5.809-6.474
			c4.343-4.839,26.004-29.763,26.004-45.228C432.361,217.776,418.09,203.505,400.548,203.505z M400.548,263.294
			c-10.144-12.572-16.204-23.794-16.204-27.976c0-8.935,7.269-16.203,16.204-16.203c8.935,0,16.203,7.268,16.203,16.203
			C416.751,239.499,410.692,250.723,400.548,263.294z"/>
	</g>
</g>
<g>
	<g>
		<rect x="87.415" y="211.772" width="17.691" height="15.61"/>
	</g>
</g>
<g>
	<g>
		<rect x="392.325" y="292.943" width="15.61" height="15.61"/>
	</g>
</g>
<g>
	<g>
		<rect x="295.545" y="411.577" width="17.691" height="15.61"/>
	</g>
</g>
<g>
	<g>
		<rect x="32.26" y="300.228" width="15.61" height="15.61"/>
	</g>
</g>
<g>
	<g>
		<rect x="56.195" y="300.228" width="48.911" height="15.61"/>
	</g>
</g>
<g>
	<g>
		<rect x="32.26" y="323.122" width="15.61" height="15.61"/>
	</g>
</g>
<g>
	<g>
		<rect x="56.195" y="323.122" width="48.911" height="15.61"/>
	</g>
</g>
<g>
	<g>
		<rect x="32.26" y="348.098" width="15.61" height="15.61"/>
	</g>
</g>
<g>
	<g>
		<rect x="56.195" y="348.098" width="48.911" height="15.61"/>
	</g>
</g>
<g>
	<g>
		<path d="M168.465,315.546c-13.347,0-24.207-10.86-24.207-24.208c0-13.347,10.859-24.207,24.207-24.207h12.004
			c15.335,0,27.812-12.476,27.812-27.812s-12.476-27.812-27.812-27.812h-68.024v15.61h68.024c6.728,0,12.203,5.474,12.203,12.203
			c0,6.729-5.474,12.203-12.203,12.203h-12.004c-21.955,0-39.816,17.862-39.816,39.816c0,21.956,17.862,39.817,39.816,39.817h48.018
			v-15.61H168.465z"/>
	</g>
</g>
<g>
	<g>
		<path d="M304.514,291.536c-8.935,0-16.204-7.268-16.204-16.203c0-8.935,7.269-16.204,16.204-16.204h12.004
			c15.335,0,27.812-12.476,27.812-27.812c0-15.335-12.476-27.812-27.812-27.812h-68.024v15.61h68.024
			c6.729,0.001,12.203,5.474,12.203,12.203c0,6.729-5.474,12.203-12.203,12.203h-12.004c-17.542,0-31.814,14.271-31.814,31.814
			s14.271,31.813,31.814,31.813h80.028v-15.61H304.514z"/>
	</g>
</g>
<g>
	<g>
		<path d="M408.552,363.563H376.54c-4.522,0-8.2-3.679-8.2-8.201c0-4.522,3.679-8.2,8.2-8.2h10.626
			c11.683,0,21.188-9.505,21.188-21.188v-10.626h-15.61v10.626c0,3.076-2.502,5.578-5.578,5.578H376.54
			c-13.129,0-23.81,10.681-23.81,23.81s10.681,23.811,23.81,23.811h32.013c8.935,0,16.203,7.268,16.203,16.203
			c0,8.935-7.268,16.204-16.203,16.204h-88.033v15.61h88.033c17.541,0,31.813-14.271,31.813-31.814
			C440.365,377.834,426.093,363.563,408.552,363.563z"/>
	</g>
</g>
<g>
</g>
<g>
</g>
<g>
</g>
<g>
</g>
<g>
</g>
<g>
</g>
<g>
</g>
<g>
</g>
<g>
</g>
<g>
</g>
<g>
</g>
<g>
</g>
<g>
</g>
<g>
</g>
<g>
</g>
</svg>
