<?xml version="1.0" encoding="iso-8859-1"?>
<!-- Generator: Adobe Illustrator 19.0.0, SVG Export Plug-In . SVG Version: 6.00 Build 0)  -->
<svg version="1.1" id="Layer_1" xmlns="http://www.w3.org/2000/svg" xmlns:xlink="http://www.w3.org/1999/xlink" x="0px" y="0px"
	 viewBox="0 0 512 512" style="enable-background:new 0 0 512 512;" xml:space="preserve">
<g>
	<g>
		<path d="M336.256,111.575c-13.135,0-23.823,10.687-23.823,23.823c0,13.135,10.687,23.822,23.823,23.822
			c13.137,0.001,23.823-10.687,23.823-23.822C360.079,122.262,349.392,111.575,336.256,111.575z M336.256,143.618
			c-4.533,0.001-8.221-3.686-8.221-8.22c0-4.532,3.688-8.221,8.221-8.221c4.533,0,8.221,3.689,8.221,8.221
			S340.789,143.618,336.256,143.618z"/>
	</g>
</g>
<g>
	<g>
		<polygon points="384.057,159.783 384.057,262.762 417.343,262.762 417.343,247.159 399.66,247.159 399.66,175.386 
			465.191,175.386 465.191,183.707 480.794,183.707 480.794,159.783 		"/>
	</g>
</g>
<g>
	<g>
		<path d="M287.319,262.762v-31.206h-55.13v80.095h88.416v-48.889H287.319z M305.002,296.048h-57.21v-48.889h23.924v31.206h33.286
			V296.048z"/>
	</g>
</g>
<g>
	<g>
		<path d="M417.343,351.178v-15.603h-33.286v33.286h-23.924v-33.286H200.983v33.286h-57.21v-33.286H31.432v31.622
			c-9.013-3.663-15.603-12.951-15.603-23.517l-0.03-32.03h192.465v-80.095H15.723l-0.023-23.924h112.468V144.18h15.603v63.452
			h119.622V144.18h16.643v-15.603H39.847c-13.357,0-24.226-10.949-24.243-24.414v-0.059c0.016-13.466,10.885-24.416,24.243-24.416
			H72v39.527h15.603v-55.13H39.847c-21.714,0-39.415,17.55-39.827,39.276H0l0.001,0.744c0,0.009-0.001,0.019-0.001,0.028
			c0,0.01,0.001,0.02,0.001,0.03l0.226,239.524c0,22.484,17.773,40.776,39.62,40.776h377.496v-15.603H399.66v-17.683H417.343z
			 M159.376,144.18h88.416v47.849h-88.416V144.18z M15.633,135.908c6.717,5.182,15.111,8.273,24.214,8.273h72.721v47.849H15.686
			L15.633,135.908z M15.739,247.159h176.923v48.889H15.785L15.739,247.159z M128.17,368.861H47.035v-17.683h81.135V368.861z
			 M344.53,368.861H216.586v-17.683H344.53V368.861z"/>
	</g>
</g>
<g>
	<g>
		<polygon points="384.057,296.048 384.057,272.124 360.132,272.124 360.132,287.726 368.454,287.726 368.454,311.651 
			392.378,311.651 392.378,296.048 		"/>
	</g>
</g>
<g>
	<g>
		<path d="M472.444,128.577h-80.065v15.603h80.065c13.365,0,23.954,10.729,23.954,23.915v0.074c0,13.161-10.608,23.86-23.954,23.86
			h-48.86v104.019H399.66v15.603h23.924v136.265h48.86c21.812,0,39.412-18.007,39.412-40.13L512,168.187c0-0.024,0-0.046,0-0.073
			c0-0.002,0-0.006,0-0.009C512,146.309,494.415,128.577,472.444,128.577z M496.397,407.776c0,13.53-10.745,24.537-23.953,24.537
			h-33.257V207.632h33.257c9.096,0,17.491-3.04,24.205-8.148L496.397,407.776z"/>
	</g>
</g>
<g>
	<g>
		<path d="M344.542,217.209c8.698-12.865,39.571-60.066,39.571-81.809c0-26.389-21.469-47.857-47.857-47.857
			s-47.857,21.469-47.857,47.857c0,21.743,30.873,68.944,39.571,81.809c-9.063,3.373-15.537,12.111-15.537,22.335
			c0,10.579,6.934,19.565,16.494,22.665v25.519h23.924v-15.603h-8.322v-10.242c9.069-3.37,15.55-12.111,15.55-22.339
			C360.079,229.32,353.605,220.582,344.542,217.209z M336.256,247.762c-4.532,0-8.221-3.688-8.221-8.22
			c0-4.532,3.688-8.221,8.221-8.221s8.221,3.688,8.221,8.221S340.789,247.762,336.256,247.762z M336.255,201.484
			c-14.476-22.256-32.253-53.668-32.253-66.084c0-17.785,14.469-32.254,32.254-32.254c17.785,0,32.254,14.469,32.254,32.254
			C368.51,147.806,350.731,179.222,336.255,201.484z"/>
	</g>
</g>
<g>
</g>
<g>
</g>
<g>
</g>
<g>
</g>
<g>
</g>
<g>
</g>
<g>
</g>
<g>
</g>
<g>
</g>
<g>
</g>
<g>
</g>
<g>
</g>
<g>
</g>
<g>
</g>
<g>
</g>
</svg>
