<?xml version="1.0" encoding="iso-8859-1"?>
<!-- Generator: Adobe Illustrator 19.0.0, SVG Export Plug-In . SVG Version: 6.00 Build 0)  -->
<svg version="1.1" id="Layer_1" xmlns="http://www.w3.org/2000/svg" xmlns:xlink="http://www.w3.org/1999/xlink" x="0px" y="0px"
	 viewBox="0 0 511.999 511.999" style="enable-background:new 0 0 511.999 511.999;" xml:space="preserve">
<g>
	<g>
		<path d="M263.057,97.1V80.418h-15.494v16.788c-42.274,4.022-75.944,37.932-79.615,80.305h-17.478v15.494h17.487
			c3.722,42.32,37.37,76.172,79.606,80.19v16.901h15.494v-16.797c42.878-3.405,77.225-37.517,80.987-80.296h17.139v-15.493h-17.131
			C340.342,134.679,305.973,100.509,263.057,97.1z M328.492,193.004c-3.661,34.232-31.103,61.45-65.434,64.762v-16.216h-15.494
			v16.06c-33.684-3.901-60.443-30.835-64.053-64.606h16.54v-15.494h-16.555c3.563-33.825,30.346-60.815,64.069-64.721v16.174h15.494
			v-16.33c34.371,3.318,61.838,30.591,65.449,64.877h-15.87v15.494H328.492z"/>
	</g>
</g>
<g>
	<g>
		<rect x="248.6" y="177.515" width="15.494" height="15.494"/>
	</g>
</g>
<g>
	<g>
		<path d="M256.001,32.264c-84.329,0-152.936,68.607-152.936,152.936c0,81.498,64.079,148.305,144.499,152.7v25.533h15.494v-25.466
			c81.065-3.701,145.879-70.803,145.879-152.767C408.936,100.871,340.33,32.264,256.001,32.264z M256.001,322.643
			c-75.786,0-137.442-61.656-137.442-137.443c0-75.785,61.656-137.442,137.442-137.442S393.443,109.413,393.443,185.2
			S331.787,322.643,256.001,322.643z"/>
	</g>
</g>
<g>
	<g>
		<path d="M256.001,0C153.88,0,70.8,83.081,70.8,185.2c0,99.628,171.891,310.556,179.208,319.486l5.992,7.313l5.992-7.313
			c7.318-8.93,179.208-219.859,179.208-319.486C441.2,83.081,358.121,0,256.001,0z M256.001,487.406
			C225.193,448.67,86.294,269.332,86.294,185.2c0-93.576,76.13-169.706,169.707-169.706S425.708,91.624,425.708,185.2
			C425.707,269.309,286.808,448.665,256.001,487.406z"/>
	</g>
</g>
<g>
	<g>
		<rect x="248.6" y="370.668" width="15.494" height="15.494"/>
	</g>
</g>
<g>
	<g>
		<rect x="248.6" y="395.457" width="15.494" height="15.494"/>
	</g>
</g>
<g>
	<g>
		<rect x="248.6" y="420.247" width="15.494" height="15.494"/>
	</g>
</g>
<g>
	<g>
		<path d="M256.001,56.463c-70.986,0-128.738,57.752-128.738,128.738s57.752,128.738,128.738,128.738S384.739,256.186,384.739,185.2
			S326.987,56.463,256.001,56.463z M256.001,298.444c-62.443,0-113.244-50.801-113.244-113.244S193.557,71.956,256.001,71.956
			s113.244,50.8,113.244,113.243S318.444,298.444,256.001,298.444z"/>
	</g>
</g>
<g>
</g>
<g>
</g>
<g>
</g>
<g>
</g>
<g>
</g>
<g>
</g>
<g>
</g>
<g>
</g>
<g>
</g>
<g>
</g>
<g>
</g>
<g>
</g>
<g>
</g>
<g>
</g>
<g>
</g>
</svg>
