<?xml version="1.0" encoding="iso-8859-1"?>
<!-- Generator: Adobe Illustrator 19.0.0, SVG Export Plug-In . SVG Version: 6.00 Build 0)  -->
<svg version="1.1" id="Layer_1" xmlns="http://www.w3.org/2000/svg" xmlns:xlink="http://www.w3.org/1999/xlink" x="0px" y="0px"
	 viewBox="0 0 512.001 512.001" style="enable-background:new 0 0 512.001 512.001;" xml:space="preserve">
<g>
	<g>
		<path d="M0,0v175.766h47.677V47.677h128.089V0H0z M160.111,32.022H32.022v128.089H15.655V15.655h144.456V32.022z"/>
	</g>
</g>
<g>
	<g>
		<path d="M336.233,0v47.677h128.09v128.089h47.678V0H336.233z M479.977,160.111V32.022H351.888V15.655h144.458v144.456H479.977z"/>
	</g>
</g>
<g>
	<g>
		<path d="M47.677,464.323V336.234H0V512h175.766v-47.677H47.677z M160.111,479.979v16.368H15.655V351.889h16.368v128.089h128.089
			V479.979z"/>
	</g>
</g>
<g>
	<g>
		<path d="M464.322,336.234v128.09H336.233v47.677H512V336.234H464.322z M496.346,496.345H351.888v-16.367h128.09V351.889h16.369
			V496.345z"/>
	</g>
</g>
<g>
	<g>
		<path d="M340.66,216.375l-45.033-45.034l-39.626,39.625l-39.625-39.625l-45.034,45.034l39.625,39.625l-39.625,39.625
			l45.034,45.034l39.625-39.625l39.626,39.625l45.033-45.034l-39.626-39.625L340.66,216.375z M318.521,295.626l-22.896,22.896
			l-39.625-39.625l-39.626,39.625l-22.896-22.896l39.625-39.625l-39.625-39.625l22.896-22.896l39.625,39.625l39.626-39.625
			l22.896,22.896l-39.626,39.625L318.521,295.626z"/>
	</g>
</g>
<g>
	<g>
		<rect x="247.647" y="352.012" width="16.698" height="15.655"/>
	</g>
</g>
<g>
	<g>
		<rect x="352.012" y="247.647" width="15.655" height="16.698"/>
	</g>
</g>
<g>
	<g>
		<rect x="247.647" y="144.326" width="16.698" height="15.655"/>
	</g>
</g>
<g>
	<g>
		<rect x="144.326" y="247.647" width="15.655" height="16.698"/>
	</g>
</g>
<g>
</g>
<g>
</g>
<g>
</g>
<g>
</g>
<g>
</g>
<g>
</g>
<g>
</g>
<g>
</g>
<g>
</g>
<g>
</g>
<g>
</g>
<g>
</g>
<g>
</g>
<g>
</g>
<g>
</g>
</svg>
