<?xml version="1.0" encoding="iso-8859-1"?>
<!-- Generator: Adobe Illustrator 19.0.0, SVG Export Plug-In . SVG Version: 6.00 Build 0)  -->
<svg version="1.1" id="Layer_1" xmlns="http://www.w3.org/2000/svg" xmlns:xlink="http://www.w3.org/1999/xlink" x="0px" y="0px"
	 viewBox="0 0 512 512" style="enable-background:new 0 0 512 512;" xml:space="preserve">
<g>
	<g>
		<path d="M472.318,205.163h-19.816c-13.125-37.176-36.317-69.637-66.295-94.089v-1.36h-1.688
			c-36.318-29.015-82.321-46.39-132.314-46.39c-5.451,0-10.926,0.227-16.363,0.641c-3.451-22.607-23.024-39.981-46.58-39.981
			c-25.983,0-47.12,21.138-47.12,47.12c0,5.621,2.061,12.521,5.262,19.851c-28.984,16.482-53.799,39.67-72.268,67.52H39.685v15.562
			h26.042c-5.465,10.013-10.097,20.42-13.86,31.125H39.685v15.562h7.372c-4.755,17.801-7.198,36.257-7.198,54.944
			c0,35.083,8.559,68.2,23.688,97.388v5.366h2.885c9.525,17.152,21.35,32.856,35.066,46.687H63.547v15.562h54.987v-0.141
			c36.526,29.672,83.054,47.484,133.671,47.484c50.769,0,97.426-17.917,134.001-47.75v0.408h62.249V425.11h-45.545
			c13.716-13.831,25.541-29.535,35.066-46.687h10.479v-15.562h-2.64c12.033-26.616,18.736-56.135,18.736-87.191
			c0-2.767-0.071-5.516-0.175-8.257h7.943V251.85h-9.11c-1.192-10.63-3.171-21.025-5.878-31.125h14.99V205.163z M189.261,39.547
			c17.401,0,31.558,14.158,31.558,31.558c0,12.013-17.442,39.248-31.558,58.093c-14.116-18.845-31.558-46.08-31.558-58.093
			C157.703,53.704,171.859,39.547,189.261,39.547z M197.216,165.519c0,4.386-3.568,7.954-7.954,7.954s-7.954-3.568-7.954-7.954
			s3.568-7.954,7.954-7.954S197.216,161.132,197.216,165.519z M428.58,362.86h-42.375v15.562h33.758
			c-34.649,56.362-96.884,94.029-167.758,94.029c-19.188,0-37.74-2.773-55.287-7.918h31.589v-15.562h-69.446
			c-30.646-16.538-56.43-40.967-74.616-70.549h56.913V362.86H75.828c-12.032-24.24-19.208-51.292-20.257-79.886h15.239v-15.562H55.6
			c1.376-33.073,10.995-65.122,28.066-93.374h57.693v-15.562H94.123c16.194-21.805,36.766-40.097,60.323-53.61
			c9.138,16.156,20.905,31.866,26.256,38.756c-6.589,2.585-11.739,8.056-13.877,14.854h-17.165v15.562h17.689
			c3.421,8.767,11.95,14.998,21.913,14.998c12.968,0,23.517-10.55,23.517-23.517c0-9.947-6.211-18.466-14.956-21.897
			c8.241-10.612,31.707-42.147,37.336-64.007c5.653-0.484,11.366-0.729,17.047-0.729c38.849,0,75.102,11.319,105.64,30.828H338.48
			v15.562h40.476c37.069,31.293,62.455,76.004,68.584,126.573h-68.16c-8.196-13.927-23.335-23.301-40.632-23.301
			c-17.296,0-32.436,9.374-40.632,23.301h-172.32v15.562h166.572c-0.476,2.683-0.74,5.44-0.74,8.257
			c0,21.152,29.169,60.422,38.56,72.517c-8.745,3.431-14.956,11.95-14.956,21.897c0,12.968,10.549,23.517,23.517,23.517
			c10.031,0,18.61-6.315,21.984-15.177h18.209V362.86h-17.815c-2.172-6.715-7.286-12.113-13.817-14.674
			c9.391-12.095,38.56-51.365,38.56-72.517c0-2.818-0.263-5.574-0.74-8.257h63.669c0.114,2.74,0.186,5.49,0.186,8.257
			C448.986,306.961,441.631,336.565,428.58,362.86z M338.75,333.763c-14.117-18.845-31.558-46.081-31.558-58.093
			c0-17.402,14.158-31.558,31.558-31.558c17.401,0,31.558,14.156,31.558,31.558C370.309,287.683,352.866,314.918,338.75,333.763z
			 M346.705,370.084c0,4.386-3.568,7.954-7.954,7.954c-4.386,0-7.954-3.568-7.954-7.954c0-4.388,3.568-7.955,7.954-7.955
			C343.137,362.129,346.705,365.697,346.705,370.084z"/>
	</g>
</g>
<g>
	<g>
		<path d="M189.261,47.589c-12.968,0-23.517,10.55-23.517,23.517c0,12.968,10.549,23.517,23.517,23.517s23.517-10.55,23.517-23.517
			S202.229,47.589,189.261,47.589z M189.261,79.06c-4.386,0-7.954-3.569-7.954-7.954c0-4.386,3.568-7.954,7.954-7.954
			s7.954,3.568,7.954,7.954S193.648,79.06,189.261,79.06z"/>
	</g>
</g>
<g>
	<g>
		<path d="M338.75,252.152c-12.967,0-23.517,10.549-23.517,23.517s10.549,23.517,23.517,23.517
			c12.968,0,23.517-10.549,23.517-23.517C362.267,262.702,351.718,252.152,338.75,252.152z M338.75,283.623
			c-4.386,0-7.954-3.568-7.954-7.954s3.568-7.954,7.954-7.954c4.387,0,7.954,3.568,7.954,7.954
			C346.705,280.055,343.136,283.623,338.75,283.623z"/>
	</g>
</g>
<g>
	<g>
		<path d="M31.385,173.3v-15.562C14.785,157.739,0,171.817,0,189.123c0,17.306,14.785,31.385,31.385,31.385v-15.562
			c-8.3,0-15.823-7.098-15.823-15.823C15.562,180.398,23.085,173.3,31.385,173.3z"/>
	</g>
</g>
<g>
	<g>
		<path d="M55.247,377.864v-15.562c-21.787,0-39.253,17.609-39.253,39.252c0,21.644,17.466,39.253,39.253,39.253v-15.562
			c-12.45,0-23.691-10.628-23.691-23.691S42.797,377.864,55.247,377.864z"/>
	</g>
</g>
<g>
	<g>
		<path d="M149.658,315.095v15.562c9.337,0,15.822,7.097,15.822,15.822c0,8.725-6.484,15.823-15.822,15.823v15.562
			c17.637,0,31.384-14.079,31.384-31.385C181.042,329.174,167.296,315.095,149.658,315.095z"/>
	</g>
</g>
<g>
	<g>
		<path d="M118.534,267.714v-15.562c-21.787,0-39.252,17.609-39.252,39.252c0,21.644,17.465,39.252,39.252,39.252v-15.562
			c-13.487,0-23.69-10.628-23.69-23.69C94.844,278.342,105.046,267.714,118.534,267.714z"/>
	</g>
</g>
<g>
	<g>
		<path d="M480.616,204.945v15.562c8.3,0,15.822,7.097,15.822,15.823c0,8.725-7.522,15.823-15.822,15.823v15.562
			c16.6,0,31.384-14.079,31.384-31.385C512,219.024,497.216,204.945,480.616,204.945z"/>
	</g>
</g>
<g>
	<g>
		<path d="M456.754,362.302v15.562c13.487,0,23.69,10.627,23.69,23.69c0,13.063-10.203,23.691-23.69,23.691v15.562
			c21.787,0,39.252-17.609,39.252-39.253C496.006,379.911,478.541,362.302,456.754,362.302z"/>
	</g>
</g>
<g>
	<g>
		<rect x="259.631" y="109.714" width="63.287" height="15.562"/>
	</g>
</g>
<g>
	<g>
		<rect x="236.806" y="158.475" width="117.236" height="15.562"/>
	</g>
</g>
<g>
	<g>
		<rect x="110.233" y="205.162" width="133.836" height="15.562"/>
	</g>
</g>
<g>
	<g>
		<rect x="267.931" y="205.162" width="23.862" height="15.562"/>
	</g>
</g>
<g>
	<g>
		<rect x="363.379" y="205.162" width="38.387" height="15.562"/>
	</g>
</g>
<g>
	<g>
		<rect x="141.357" y="282.974" width="102.711" height="15.562"/>
	</g>
</g>
<g>
	<g>
		<rect x="228.506" y="330.698" width="54.987" height="15.562"/>
	</g>
</g>
<g>
	<g>
		<rect x="181.819" y="362.86" width="31.125" height="15.562"/>
	</g>
</g>
<g>
	<g>
		<rect x="190.119" y="417.847" width="140.061" height="15.562"/>
	</g>
</g>
<g>
	<g>
		<rect x="125.795" y="315.136" width="15.562" height="15.562"/>
	</g>
</g>
<g>
</g>
<g>
</g>
<g>
</g>
<g>
</g>
<g>
</g>
<g>
</g>
<g>
</g>
<g>
</g>
<g>
</g>
<g>
</g>
<g>
</g>
<g>
</g>
<g>
</g>
<g>
</g>
<g>
</g>
</svg>
