<?xml version="1.0" encoding="iso-8859-1"?>
<!-- Generator: Adobe Illustrator 19.0.0, SVG Export Plug-In . SVG Version: 6.00 Build 0)  -->
<svg version="1.1" id="Layer_1" xmlns="http://www.w3.org/2000/svg" xmlns:xlink="http://www.w3.org/1999/xlink" x="0px" y="0px"
	 viewBox="0 0 512 512" style="enable-background:new 0 0 512 512;" xml:space="preserve">
<g>
	<g>
		<path d="M39.591,224.155c-17.559,0-31.845,14.286-31.845,31.845c-0.001,14.792,10.138,27.26,23.831,30.822v8.843h15.658v-8.755
			c13.879-3.433,24.202-15.986,24.202-30.911C71.436,238.441,57.15,224.155,39.591,224.155z M39.589,272.188
			c-8.926,0-16.188-7.261-16.188-16.188s7.262-16.188,16.188-16.188c8.926,0,16.188,7.262,16.188,16.188
			C55.777,264.926,48.515,272.188,39.589,272.188z"/>
	</g>
</g>
<g>
	<g>
		<rect x="31.576" y="304.016" width="15.658" height="63.674"/>
	</g>
</g>
<g>
	<g>
		<path d="M79.683,359.338c-0.389-12.806-10.922-23.106-23.821-23.106v15.658c4.511,0,8.183,3.671,8.183,8.183v16.01
			c0,4.511-3.671,8.183-8.183,8.183H23.84c-4.511,0-8.183-3.671-8.183-8.183v-16.01c0-4.511,3.671-8.183,8.183-8.183v-15.658
			C10.695,336.232,0,346.926,0,360.071v16.01c0,13.145,10.695,23.84,23.84,23.84h32.022c13.145,0,23.84-10.695,23.84-23.84v-1.086
			H95.25v-15.658H79.683z"/>
	</g>
</g>
<g>
	<g>
		<path d="M471.889,224.155c-17.559,0-31.845,14.286-31.845,31.845c0,14.737,10.064,27.164,23.679,30.779v8.886h15.658v-8.719
			c13.955-3.379,24.354-15.968,24.354-30.947C503.734,238.441,489.448,224.155,471.889,224.155z M471.888,272.188
			c-8.926,0-16.188-7.261-16.188-16.188s7.262-16.188,16.188-16.188c8.926,0,16.188,7.262,16.188,16.188
			C488.075,264.926,480.813,272.188,471.888,272.188z"/>
	</g>
</g>
<g>
	<g>
		<rect x="463.723" y="304.016" width="15.658" height="63.674"/>
	</g>
</g>
<g>
	<g>
		<path d="M488.16,336.232v15.658c4.511,0,8.183,3.671,8.183,8.183v16.01c0,4.511-3.671,8.183-8.183,8.183h-32.022
			c-4.511,0-8.183-3.671-8.183-8.183v-16.01c0-4.511,3.671-8.183,8.183-8.183v-15.658c-12.9,0-23.432,10.301-23.821,23.107h-16.611
			v15.657h16.592v1.086c0,13.145,10.695,23.84,23.84,23.84h32.022c13.145,0,23.84-10.695,23.84-23.84v-16.01
			C512,346.926,501.305,336.232,488.16,336.232z"/>
	</g>
</g>
<g>
	<g>
		<rect x="103.6" y="359.339" width="15.658" height="15.657"/>
	</g>
</g>
<g>
	<g>
		<rect x="127.609" y="359.339" width="15.657" height="15.657"/>
	</g>
</g>
<g>
	<g>
		<rect x="151.617" y="359.339" width="15.658" height="15.657"/>
	</g>
</g>
<g>
	<g>
		<rect x="175.625" y="359.339" width="15.657" height="15.657"/>
	</g>
</g>
<g>
	<g>
		<rect x="199.633" y="359.339" width="15.657" height="15.657"/>
	</g>
</g>
<g>
	<g>
		<rect x="223.641" y="359.339" width="15.658" height="15.657"/>
	</g>
</g>
<g>
	<g>
		<rect x="247.649" y="359.339" width="15.657" height="15.657"/>
	</g>
</g>
<g>
	<g>
		<rect x="271.657" y="359.339" width="15.658" height="15.657"/>
	</g>
</g>
<g>
	<g>
		<rect x="295.666" y="359.339" width="15.657" height="15.657"/>
	</g>
</g>
<g>
	<g>
		<rect x="319.674" y="359.339" width="15.657" height="15.657"/>
	</g>
</g>
<g>
	<g>
		<rect x="343.682" y="359.339" width="15.658" height="15.657"/>
	</g>
</g>
<g>
	<g>
		<rect x="367.69" y="359.339" width="15.657" height="15.657"/>
	</g>
</g>
<g>
	<g>
		<rect x="391.698" y="359.339" width="15.658" height="15.657"/>
	</g>
</g>
<g>
	<g>
		<path d="M399.923,213.727V112.077H112.077v101.649l-26.31,42.096h340.465L399.923,213.727z M114.017,240.165l13.718-21.948
			v-90.483h256.53v90.483l13.718,21.948H114.017z"/>
	</g>
</g>
<g>
	<g>
		<rect x="143.266" y="143.266" width="88.726" height="15.658"/>
	</g>
</g>
<g>
	<g>
		<rect x="143.266" y="175.625" width="32.359" height="15.657"/>
	</g>
</g>
<g>
	<g>
		<rect x="143.266" y="207.984" width="16.701" height="15.657"/>
	</g>
</g>
<g>
	<g>
		<rect x="167.274" y="207.984" width="16.701" height="15.657"/>
	</g>
</g>
<g>
	<g>
		<rect x="191.282" y="207.984" width="16.701" height="15.657"/>
	</g>
</g>
<g>
	<g>
		<rect x="215.291" y="207.984" width="16.701" height="15.657"/>
	</g>
</g>
<g>
	<g>
		<path d="M248.171,144.099v79.702h119.73v-79.702H248.171z M352.243,208.143h-88.415v-48.387h88.415V208.143z"/>
	</g>
</g>
<g>
	<g>
		<rect x="280.008" y="175.625" width="55.323" height="15.657"/>
	</g>
</g>
<g>
</g>
<g>
</g>
<g>
</g>
<g>
</g>
<g>
</g>
<g>
</g>
<g>
</g>
<g>
</g>
<g>
</g>
<g>
</g>
<g>
</g>
<g>
</g>
<g>
</g>
<g>
</g>
<g>
</g>
</svg>
