<?xml version="1.0" encoding="iso-8859-1"?>
<!-- Generator: Adobe Illustrator 19.0.0, SVG Export Plug-In . SVG Version: 6.00 Build 0)  -->
<svg version="1.1" id="Layer_1" xmlns="http://www.w3.org/2000/svg" xmlns:xlink="http://www.w3.org/1999/xlink" x="0px" y="0px"
	 viewBox="0 0 512 512" style="enable-background:new 0 0 512 512;" xml:space="preserve">
<g>
	<g>
		<path d="M431.358,88.647c-46.84-46.84-109.117-72.636-175.359-72.636c-23.442,0-46.587,3.267-68.891,9.705
			C175.451,10.116,156.844,0,135.918,0c-35.218,0-63.87,28.652-63.87,63.87c0,7.395,2.659,16.628,6.831,26.573
			C33.141,137.068,8.005,198.499,8.005,264.005c0,66.242,25.796,128.519,72.636,175.359S189.758,512,255.999,512
			s128.519-25.796,175.36-72.636c46.839-46.84,72.636-109.117,72.636-175.359S478.198,135.487,431.358,88.647z M135.918,15.663
			c26.581,0,48.207,21.625,48.207,48.207c0,20.466-30.594,66.76-48.188,90.938c-5.329-7.342-13.399-18.804-21.419-31.483
			C91.194,86.45,87.711,70.246,87.711,63.87C87.711,37.289,109.337,15.663,135.918,15.663z M156.981,152.272h17.478l31.729,12.488
			l-10.786,32.27l-11.176-5.634l-55.959,23.849l-33.029-19.726v-24.291l11.859-11.645h12.916c4.784,6.674,8.375,11.407,9.688,13.122
			l6.216,8.111l6.216-8.111C143.886,170.416,149.69,162.76,156.981,152.272z M93.27,429.805l20.126-20.126
			c4.085,5.654,7.115,9.648,8.299,11.193l6.216,8.111l6.216-8.111c0.618-0.806,1.743-2.286,3.254-4.313l22.598,5.661v13.066
			l-37.632,18.829C112.106,446.882,102.387,438.758,93.27,429.805z M106.512,371.493c-23.323-36.875-26.806-53.078-26.806-59.455
			c0-26.581,21.625-48.206,48.207-48.206s48.207,21.625,48.207,48.206c-0.001,20.466-30.595,66.76-48.189,90.938
			C122.602,395.633,114.532,384.172,106.512,371.493z M255.994,496.338c-42.331-0.001-82.934-11.257-118.4-32.337l38.048-19.037
			v-34.967l-28.377-7.109c17.204-24.496,44.518-67.12,44.518-90.85c0-35.218-28.652-63.869-63.87-63.869s-63.87,28.652-63.87,63.869
			c0,21.828,23.113,59.647,40.208,84.635l-21.794,21.794c-38.002-42.586-58.79-96.923-58.79-154.461
			c0-59.425,22.082-115.27,62.385-158.408c6.92,13.298,15.41,26.855,23.097,38.32h-8.456l-21.119,20.736v39.753l47.503,28.37
			l56.596-24.12l20.845,10.507l21.236-63.538l-48.325-19.018h-9.928c15.531-23.98,32.285-54.155,32.285-72.739
			c0-8.531-1.694-16.67-4.743-24.116c19.78-5.362,40.242-8.079,60.954-8.079c62.058,0,120.402,24.167,164.283,68.049
			c13.471,13.471,25.076,28.309,34.702,44.196h-35.749c-9.514-23.343-32.442-39.847-59.165-39.847
			c-35.218,0-63.87,28.652-63.87,63.87c0,20.917,21.224,56.519,38.038,81.443h-17.4l-38.738,38.055l24.052,39.521l-17.386,17.447
			h-52.74v95.023h28.732l19.254,19.255l19.254-19.255h26.584l24.017-79.36h11.487l18.662-6.314l11.801,23.691l-7.28,56.779
			l-25.119,8.233v29.342h0.758C328.244,487.849,292.771,496.338,255.994,496.338z M421.832,181.207l10.684,6.982v20.471h-22.059
			C415.409,199.04,419.5,189.592,421.832,181.207z M408.276,167.941c0,20.466-30.594,66.76-48.188,90.938
			c-5.328-7.343-13.399-18.805-21.419-31.483c-23.324-36.875-26.807-53.078-26.807-59.455c0-26.581,21.625-48.207,48.207-48.207
			C386.65,119.734,408.276,141.359,408.276,167.941z M420.282,428.289c-13.754,13.754-28.931,25.57-45.196,35.314v-9.798
			l23.735-7.779l9.142-71.308l-20.015-40.181l-29.166,9.868h-20.534l-24.017,79.36h-21.447l-12.767,12.768l-12.768-12.768h-19.557
			v-63.696h43.58l30.649-30.757l-23.982-39.405l25.305-24.86h21.922c4.28,5.938,7.466,10.136,8.687,11.729l6.216,8.111l6.216-8.111
			c3.275-4.273,20.665-27.258,35.499-52.453h46.395v-44.608l-24.391-15.94c-0.092-1.411-0.232-2.808-0.413-4.193h40.296
			c16.128,31.994,24.659,67.554,24.659,104.425C488.331,326.064,464.164,384.407,420.282,428.289z"/>
	</g>
</g>
<g>
	<g>
		<path d="M135.918,24.017c-21.975,0-39.853,17.878-39.853,39.853c0,19.126,13.544,35.143,31.544,38.976v17.055h15.662v-16.869
			c18.473-3.462,32.499-19.7,32.499-39.162C175.771,41.895,157.893,24.017,135.918,24.017z M135.917,88.061
			c-13.338-0.001-24.19-10.853-24.19-24.191c0-13.339,10.851-24.19,24.19-24.19s24.19,10.851,24.19,24.19
			S149.256,88.061,135.917,88.061z"/>
	</g>
</g>
<g>
	<g>
		<path d="M360.069,128.086c-21.975,0-39.853,17.878-39.853,39.853c0,19.251,13.721,35.357,31.896,39.054v16.283h15.663v-16.238
			c18.3-3.6,32.147-19.76,32.147-39.099C399.922,145.964,382.044,128.086,360.069,128.086z M360.07,192.132
			c-13.339-0.001-24.19-10.852-24.19-24.191s10.852-24.19,24.19-24.19s24.19,10.851,24.19,24.19S373.409,192.132,360.07,192.132z"/>
	</g>
</g>
<g>
	<g>
		<path d="M127.912,272.185c-21.975,0-39.853,17.878-39.853,39.853c0,19.002,13.371,34.931,31.196,38.896v17.488h15.663v-17.159
			c18.644-3.322,32.849-19.64,32.849-39.224C167.766,290.063,149.887,272.185,127.912,272.185z M127.912,336.229
			c-13.339,0-24.19-10.851-24.19-24.191c0-13.339,10.851-24.19,24.19-24.19s24.191,10.851,24.191,24.19
			S141.251,336.229,127.912,336.229z"/>
	</g>
</g>
<g>
	<g>
		<path d="M286.207,169.755l-35.161-11.72l-11.508,34.523l8.005,16.011l-8.764,26.294l44.046,33.032l21.658-43.316L286.207,169.755z
			 M277.207,244.105l-19.999-14.999l7.246-21.738l-8.006-16.011l4.504-13.511l12.872,4.291l13.747,41.241L277.207,244.105z"/>
	</g>
</g>
<g>
</g>
<g>
</g>
<g>
</g>
<g>
</g>
<g>
</g>
<g>
</g>
<g>
</g>
<g>
</g>
<g>
</g>
<g>
</g>
<g>
</g>
<g>
</g>
<g>
</g>
<g>
</g>
<g>
</g>
</svg>
