<?xml version="1.0" encoding="iso-8859-1"?>
<!-- Generator: Adobe Illustrator 19.0.0, SVG Export Plug-In . SVG Version: 6.00 Build 0)  -->
<svg version="1.1" id="Layer_1" xmlns="http://www.w3.org/2000/svg" xmlns:xlink="http://www.w3.org/1999/xlink" x="0px" y="0px"
	 viewBox="0 0 512.001 512.001" style="enable-background:new 0 0 512.001 512.001;" xml:space="preserve">
<g>
	<g>
		<path d="M256.001,135.766c-43.927,0-79.665,35.738-79.665,79.666c0,43.927,35.738,79.664,79.665,79.664
			s79.665-35.738,79.665-79.664C335.666,171.504,299.928,135.766,256.001,135.766z M256.001,279.52
			c-11.67,0-22.612-3.151-32.046-8.623l23.27-13.962c1.179,1.466,2.144,2.638,2.798,3.42l5.978,7.161l5.978-7.161
			c1.778-2.13,5.794-7.04,10.458-13.371v0.216h39.188C300.566,266.487,279.783,279.52,256.001,279.52z M231.844,199.458
			c0-13.32,10.837-24.157,24.157-24.157c13.32,0,24.157,10.836,24.157,24.157c0,8.653-12.674,28.459-24.157,43.425
			C244.518,227.918,231.844,208.112,231.844,199.458z M282.906,231.623c6.932-11.148,12.829-23.245,12.829-32.164
			c0-21.909-17.825-39.734-39.734-39.734s-39.734,17.825-39.734,39.734c0,12.544,11.656,31.376,21.464,45.005l-27.056,16.234
			c-11.587-11.602-18.763-27.611-18.763-45.265c0-35.338,28.75-64.089,64.088-64.089c35.338,0,64.088,28.751,64.088,64.089
			c0,5.592-0.724,11.017-2.076,16.191H282.906z"/>
	</g>
</g>
<g>
	<g>
		<rect x="248.55" y="192.162" width="15.576" height="15.576"/>
	</g>
</g>
<g>
	<g>
		<rect x="279.703" y="40.551" width="32.191" height="15.577"/>
	</g>
</g>
<g>
	<g>
		<rect x="264.127" y="80.011" width="104.882" height="15.577"/>
	</g>
</g>
<g>
	<g>
		<rect x="407.431" y="40.551" width="16.615" height="15.577"/>
	</g>
</g>
<g>
	<g>
		<rect x="96.939" y="248.238" width="31.153" height="15.576"/>
	</g>
</g>
<g>
	<g>
		<path d="M440.843,101.298c9.44-10.294,14.617-23.551,14.617-37.606c0-14.88-5.794-28.868-16.316-39.391
			c-10.521-10.52-24.511-16.316-39.391-16.316c-14.88,0-28.868,5.794-39.39,16.316l-0.658,0.659l-0.525,0.862
			C328.406,9.354,293.277,0,256.001,0C135.009,0,36.576,98.433,36.576,219.425c0,55.723,20.913,108.846,58.888,149.584
			c35.819,38.425,83.642,62.504,135.436,68.407v74.584h48.806V437.57c31.472-3.383,61.505-13.471,88.31-29.413h0.996v-0.587
			c17.382-10.463,33.39-23.395,47.527-38.56c37.974-40.738,58.888-93.861,58.888-149.584
			C475.425,175.967,462.726,135.42,440.843,101.298z M391.857,24.34v6.865h15.577v-6.908c7.792,1.503,14.961,5.284,20.696,11.02
			c7.58,7.58,11.754,17.656,11.754,28.375c0,0.248-0.013,0.494-0.018,0.742h-7.51v15.576h4.07c-1.266,2.841-2.866,5.536-4.784,8.036
			c-16.077-21.44-35.987-39.843-58.696-54.204C378.342,28.985,384.84,25.732,391.857,24.34z M112.414,74.873l19.586,19.585
			l17.184,5.728l-10.355,20.71l-31.945,7.986l-16.132,32.263l-33.057,11.019C66.628,134.679,85.937,101.176,112.414,74.873z
			 M172.21,405.325c-24.422-11.016-46.648-26.872-65.352-46.937c-3.878-4.159-7.551-8.465-11.041-12.891l15.663-23.919v-22.89
			l11.816-10.989h15.639l12.465,30.936l-18.613,27.748l38.025,18.925l12.298,18.42L172.21,405.325z M264.13,496.423h-17.653V391.542
			h17.653V496.423z M405.144,358.388c-12.412,13.316-26.38,24.768-41.505,34.193h-59.01v15.576h28.55
			c-16.992,6.948-34.956,11.598-53.472,13.743v-30.358h8.307v-15.577h-64.383v15.577h7.269v30.2
			c-15.192-1.865-30.001-5.428-44.201-10.555l14.412-28.554l-19.646-29.425L155.6,340.335l13.331-19.875l-19.479-48.34h-32.28
			l-21.268,19.781v25.028l-9.873,15.08c-19.793-29.815-31.365-64.329-33.502-100.388h36.106v-15.577H52.197
			c0.146-8.93,0.865-17.721,2.13-26.34l47.473-15.825l15.813-31.627l31.945-7.986l21.59-43.18l-30.733-10.246l-16.527-16.526
			c3.321-2.833,6.726-5.571,10.226-8.19h130.017V40.551H158.317c29.023-15.913,62.314-24.974,97.684-24.974
			c82.325,0,153.403,49.058,185.549,119.472h-16.372l-15.972-6.231h-20.681l-22.182,22.353l4.881,9.838h-7.45l-11.447,16.221
			c-15.238-38.287-52.671-65.422-96.325-65.422c-46.131,0-85.312,30.303-98.698,72.047h-53.092v15.576h49.402
			c-0.812,5.216-1.236,10.56-1.236,16c0,54.281,41.954,98.942,95.137,103.273v8.732h-31.248v39.535h79.467v-39.535h-32.643v-8.629
			c16.833-1.143,32.576-6.321,46.264-14.576L318.27,313l-7.913,15.865l19.085,19.009l10.938,21.812l39.146-19.836l35.177-26.732
			v-35.419h33.415C438.886,313.698,424.377,337.755,405.144,358.388z M344.048,215.432c0,48.549-39.498,88.047-88.047,88.047
			c-48.55,0-88.047-39.498-88.047-88.047s39.498-88.047,88.047-88.047S344.048,166.883,344.048,215.432z M280.158,343.014v8.382
			h-48.314v-8.382H280.158z M399.125,272.121v43.268l-27.902,21.204l-23.933,12.127l-5.062-10.096l-12.917-12.865l7.945-15.933
			l-15.016-14.771c22.829-19.023,37.384-47.655,37.384-79.624c0-6.593-0.626-13.042-1.809-19.296l0.156,0.11l13.873-19.661h24.495
			l-11.091-22.353l9.762-9.838h11.264l15.972,6.231h25.642c7.733,21.504,11.96,44.666,11.96,68.8c0,17.985-2.35,35.676-6.89,52.696
			H399.125z"/>
	</g>
</g>
<g>
</g>
<g>
</g>
<g>
</g>
<g>
</g>
<g>
</g>
<g>
</g>
<g>
</g>
<g>
</g>
<g>
</g>
<g>
</g>
<g>
</g>
<g>
</g>
<g>
</g>
<g>
</g>
<g>
</g>
</svg>
