<?xml version="1.0" encoding="iso-8859-1"?>
<!-- Generator: Adobe Illustrator 19.0.0, SVG Export Plug-In . SVG Version: 6.00 Build 0)  -->
<svg version="1.1" id="Layer_1" xmlns="http://www.w3.org/2000/svg" xmlns:xlink="http://www.w3.org/1999/xlink" x="0px" y="0px"
	 viewBox="0 0 512 512" style="enable-background:new 0 0 512 512;" xml:space="preserve">
<g>
	<g>
		<path d="M0,427.973h72.764v23.968h15.704v-23.968h335.029v23.968h15.705v-23.968H512V60.059H0V427.973z M15.704,379.701h423.498
			v-15.704H15.704V75.763h480.591v288.233h-40.342v15.704h40.342v32.568H15.704V379.701z"/>
	</g>
</g>
<g>
	<g>
		<rect x="248.654" y="388.078" width="14.658" height="15.704"/>
	</g>
</g>
<g>
	<g>
		<rect x="223.527" y="388.078" width="16.751" height="15.704"/>
	</g>
</g>
<g>
	<g>
		<rect x="271.688" y="388.078" width="16.751" height="15.704"/>
	</g>
</g>
<g>
	<g>
		<rect x="23.557" y="339.918" width="16.751" height="15.705"/>
	</g>
</g>
<g>
	<g>
		<rect x="47.637" y="339.918" width="15.704" height="15.705"/>
	</g>
</g>
<g>
	<g>
		<rect x="72.764" y="339.918" width="15.704" height="15.705"/>
	</g>
</g>
<g>
	<g>
		<rect x="95.797" y="339.918" width="16.751" height="15.705"/>
	</g>
</g>
<g>
	<g>
		<rect x="119.878" y="339.918" width="15.704" height="15.705"/>
	</g>
</g>
<g>
	<g>
		<path d="M31.932,91.784v224.051h76.73l18.261,18.261l27.393-18.261h325.717V91.784H31.932z M464.33,300.13H149.56l-20.636,13.757
			l-13.758-13.757H47.637V107.488H464.33V300.13z"/>
	</g>
</g>
<g>
	<g>
		<path d="M56.034,116.091v175.8H343.9v-175.8H56.034z M95.797,131.796h64.912v23.853h-10.423
			c-3.384-9.068-12.13-15.544-22.363-15.544c-10.233,0-18.979,6.477-22.363,15.544h-9.763V131.796z M136.082,163.961
			c-0.085,2.117-3.603,7.416-8.157,12.655c-4.557-5.242-8.076-10.54-8.157-12.647c0-4.499,3.659-8.158,8.157-8.158
			C132.419,155.81,136.077,159.466,136.082,163.961z M183.743,276.187H71.738V251.97h112.004V276.187z M328.196,276.187h-88.964
			v-16.889h88.964V276.187z M328.196,243.594H223.527v32.593h-24.08v-39.922H71.738V131.796h8.355v39.557h25.613
			c3.849,9.481,13.392,19.082,16.816,22.327l5.401,5.12l5.401-5.12c0.178-0.169,4.414-4.196,8.684-9.422
			c3.9-4.773,6.603-9.047,8.164-12.905h26.241v-39.557h15.704v63.638h63.865v25.127h72.212V243.594z M328.196,204.856h-56.508
			v-25.127h-63.865v-47.933h120.373V204.856z"/>
	</g>
</g>
<g>
	<g>
		<rect x="360.68" y="115.867" width="87.945" height="15.705"/>
	</g>
</g>
<g>
	<g>
		<rect x="360.68" y="148.323" width="15.704" height="15.705"/>
	</g>
</g>
<g>
	<g>
		<rect x="360.68" y="172.403" width="15.704" height="15.704"/>
	</g>
</g>
<g>
	<g>
		<rect x="360.68" y="195.437" width="15.704" height="15.704"/>
	</g>
</g>
<g>
	<g>
		<rect x="383.713" y="148.323" width="64.912" height="15.705"/>
	</g>
</g>
<g>
	<g>
		<rect x="383.713" y="172.403" width="64.912" height="15.704"/>
	</g>
</g>
<g>
	<g>
		<rect x="383.713" y="195.437" width="64.912" height="15.704"/>
	</g>
</g>
<g>
	<g>
		<rect x="119.878" y="204.859" width="15.704" height="15.705"/>
	</g>
</g>
<g>
	<g>
		<rect x="360.68" y="276.053" width="15.704" height="15.704"/>
	</g>
</g>
<g>
	<g>
		<rect x="383.713" y="276.053" width="16.751" height="15.704"/>
	</g>
</g>
<g>
	<g>
		<rect x="408.84" y="276.053" width="14.658" height="15.704"/>
	</g>
</g>
<g>
	<g>
		<rect x="431.874" y="276.053" width="16.751" height="15.704"/>
	</g>
</g>
<g>
</g>
<g>
</g>
<g>
</g>
<g>
</g>
<g>
</g>
<g>
</g>
<g>
</g>
<g>
</g>
<g>
</g>
<g>
</g>
<g>
</g>
<g>
</g>
<g>
</g>
<g>
</g>
<g>
</g>
</svg>
