<?xml version="1.0" encoding="iso-8859-1"?>
<!-- Generator: Adobe Illustrator 19.0.0, SVG Export Plug-In . SVG Version: 6.00 Build 0)  -->
<svg version="1.1" id="Layer_1" xmlns="http://www.w3.org/2000/svg" xmlns:xlink="http://www.w3.org/1999/xlink" x="0px" y="0px"
	 viewBox="0 0 512.001 512.001" style="enable-background:new 0 0 512.001 512.001;" xml:space="preserve">
<g>
	<g>
		<path d="M180.062,0c-30.7,0-55.687,24.928-55.856,55.631l0.85,400.507c0,14.94,5.684,28.941,15.89,39.426
			c10.319,10.599,24.21,16.437,39.115,16.437s28.796-5.837,39.115-16.437c10.207-10.485,15.827-24.486,15.827-39.408l0.922-400.148
			c0-0.003,0-0.006,0-0.009c0-17.559-14.29-31.846-31.856-31.846c-17.566,0-31.856,14.294-31.856,31.865v38.399
			c-8.371-1.835-15.238-5.351-20.48-10.527c-8.77-8.659-11.118-20.069-11.74-25.307c-0.058-0.874-0.096-1.754-0.096-2.642
			c0-22.19,18.018-40.243,40.165-40.243h192.035V48.14h-56.512v79.535h56.512v16.744h-31.395v63.837h31.395v16.744H284.19v62.791
			h87.907v16.744h-72.209v23.023h15.698v-7.326h56.512v120.349h-56.512v-8.372h-15.698v8.372h-55.465v15.698h143.372V0H180.062z
			 M187.911,56.017c0-8.915,7.249-16.168,16.158-16.168c8.908,0,16.155,7.241,16.158,16.143v0.022
			c-0.007,19.446-13.918,35.705-32.316,39.362V56.017z M148.142,101.779v26.943h15.698v-19.29
			c5.136,1.562,10.581,2.411,16.221,2.411c1.793,0,6.994-0.232,7.849-0.239v48.513h15.698v-53.495
			c6.215-2.901,11.809-6.911,16.53-11.776l-0.832,361.291c0,19.762-13.275,35.765-31.394,39.391v-42.387h-15.698v42.387
			c-2.931-0.586-5.731-1.503-8.372-2.701v-68.988h-15.698v55.934c-4.622-6.594-7.328-14.737-7.328-23.653l-0.833-361.295
			C142.472,97.394,145.203,99.723,148.142,101.779z M372.097,272.094h-72.209v-31.395h72.209V272.094z M372.097,192.559H356.4
			v-32.442h15.698V192.559z M372.097,111.977h-40.814v-48.14h40.814V111.977z"/>
	</g>
</g>
<g>
	<g>
		<path d="M252.237,336.255v87.719h103.724v-87.719H252.237z M340.263,408.276h-72.329v-56.323h0h72.329V408.276z"/>
	</g>
</g>
<g>
	<g>
		<rect x="275.82" y="360.001" width="16.744" height="15.698"/>
	</g>
</g>
<g>
	<g>
		<rect x="299.89" y="360.001" width="31.395" height="15.698"/>
	</g>
</g>
<g>
	<g>
		<rect x="275.82" y="385.117" width="16.744" height="15.698"/>
	</g>
</g>
<g>
	<g>
		<rect x="299.89" y="385.117" width="31.395" height="15.698"/>
	</g>
</g>
<g>
	<g>
		<polygon points="244.422,48.14 244.422,63.837 284.19,63.837 284.19,111.977 244.422,111.977 244.422,127.675 299.888,127.675 
			299.888,48.14 		"/>
	</g>
</g>
<g>
	<g>
		<polygon points="244.422,144.419 244.422,160.117 308.26,160.117 308.26,192.559 244.422,192.559 244.422,208.256 
			323.958,208.256 323.958,144.419 		"/>
	</g>
</g>
<g>
	<g>
		<polygon points="244.422,225.001 244.422,240.698 251.748,240.698 251.748,311.861 244.422,311.861 244.422,327.559 
			267.446,327.559 267.446,225.001 		"/>
	</g>
</g>
<g>
</g>
<g>
</g>
<g>
</g>
<g>
</g>
<g>
</g>
<g>
</g>
<g>
</g>
<g>
</g>
<g>
</g>
<g>
</g>
<g>
</g>
<g>
</g>
<g>
</g>
<g>
</g>
<g>
</g>
</svg>
