<?xml version="1.0" encoding="iso-8859-1"?>
<!-- Generator: Adobe Illustrator 19.0.0, SVG Export Plug-In . SVG Version: 6.00 Build 0)  -->
<svg version="1.1" id="Layer_1" xmlns="http://www.w3.org/2000/svg" xmlns:xlink="http://www.w3.org/1999/xlink" x="0px" y="0px"
	 viewBox="0 0 512 512" style="enable-background:new 0 0 512 512;" xml:space="preserve">
<g>
	<g>
		<path d="M315.139,280.167c24.402-55.03,36.766-95.444,36.766-120.223C351.905,71.75,280.155,0,191.961,0
			C103.769,0,32.019,71.75,32.019,159.943c0,85.201,146.962,329.88,153.218,340.255l6.725,11.151l6.725-11.151
			c0.215-0.356,18.157-30.156,41.456-72.135V512h239.838V280.167H315.139z M240.142,280.166V395.39
			c-20.382,37.661-38.731,69.312-48.18,85.367c-12.583-21.385-40.96-70.446-69.071-124.821
			c-49.175-95.124-75.168-162.898-75.168-195.992C47.724,80.41,112.428,15.706,191.961,15.706
			c79.534,0,144.238,64.705,144.238,144.237c0,23.518-12.875,63.956-38.267,120.223H240.142z M464.275,496.294H255.848V295.872
			h208.427V496.294z"/>
	</g>
</g>
<g>
	<g>
		<path d="M191.961,40.024c-66.123,0-119.919,53.796-119.919,119.92s53.796,119.918,119.919,119.918S311.88,226.066,311.88,159.943
			S258.085,40.024,191.961,40.024z M191.961,264.156c-57.463,0-104.213-46.75-104.213-104.213
			c0-57.463,46.75-104.215,104.213-104.215s104.213,46.75,104.213,104.215S249.424,264.156,191.961,264.156z"/>
	</g>
</g>
<g>
	<g>
		<path d="M191.961,64.038c-52.883,0-95.905,43.023-95.905,95.905c0,52.882,43.023,95.905,95.905,95.905
			s95.905-43.023,95.905-95.905C287.866,107.061,244.843,64.038,191.961,64.038z M191.961,240.143c-44.221,0-80.2-35.977-80.2-80.2
			s35.977-80.2,80.2-80.2c44.221,0,80.2,35.977,80.2,80.2S236.183,240.143,191.961,240.143z"/>
	</g>
</g>
<g>
	<g>
		<rect x="183.251" y="151.297" width="16.753" height="15.706"/>
	</g>
</g>
<g>
	<g>
		<rect x="160.217" y="151.297" width="15.706" height="15.706"/>
	</g>
</g>
<g>
	<g>
		<rect x="208.38" y="151.297" width="15.706" height="15.706"/>
	</g>
</g>
<g>
	<g>
		<path d="M336.046,335.008l-63.887,36.506v108.468h127.772V371.514h0.001L336.046,335.008z M344.491,464.275h-15.706v-39.703
			h15.706V464.275z M384.228,464.275h-0.001h-24.031v-55.408H313.08v55.408h-25.214v-83.648l48.181-27.532l48.18,27.532V464.275z"/>
	</g>
</g>
<g>
	<g>
		<rect x="328.789" y="376.409" width="15.706" height="15.706"/>
	</g>
</g>
<g>
	<g>
		<rect x="367.53" y="312.54" width="80.622" height="15.706"/>
	</g>
</g>
<g>
	<g>
		<rect x="399.988" y="335.575" width="48.164" height="15.706"/>
	</g>
</g>
<g>
	<g>
		<rect x="424.069" y="360.703" width="24.082" height="15.706"/>
	</g>
</g>
<g>
	<g>
		<rect x="431.399" y="463.313" width="16.753" height="15.706"/>
	</g>
</g>
<g>
	<g>
		<rect x="431.399" y="440.278" width="16.753" height="15.706"/>
	</g>
</g>
<g>
	<g>
		<rect x="431.399" y="416.196" width="16.753" height="15.706"/>
	</g>
</g>
<g>
</g>
<g>
</g>
<g>
</g>
<g>
</g>
<g>
</g>
<g>
</g>
<g>
</g>
<g>
</g>
<g>
</g>
<g>
</g>
<g>
</g>
<g>
</g>
<g>
</g>
<g>
</g>
<g>
</g>
</svg>
