<?xml version="1.0" encoding="iso-8859-1"?>
<!-- Generator: Adobe Illustrator 19.0.0, SVG Export Plug-In . SVG Version: 6.00 Build 0)  -->
<svg version="1.1" id="Layer_1" xmlns="http://www.w3.org/2000/svg" xmlns:xlink="http://www.w3.org/1999/xlink" x="0px" y="0px"
	 viewBox="0 0 511.999 511.999" style="enable-background:new 0 0 511.999 511.999;" xml:space="preserve">
<g>
	<g>
		<rect x="243.473" y="215.555" width="16.907" height="15.85"/>
	</g>
</g>
<g>
	<g>
		<rect x="340.689" y="89.803" width="117.293" height="15.85"/>
	</g>
</g>
<g>
	<g>
		<rect x="340.689" y="115.159" width="59.175" height="15.85"/>
	</g>
</g>
<g>
	<g>
		<rect x="340.689" y="139.473" width="76.082" height="15.85"/>
	</g>
</g>
<g>
	<g>
		<rect x="432.622" y="139.473" width="25.361" height="15.85"/>
	</g>
</g>
<g>
	<g>
		<rect x="340.689" y="173.288" width="16.907" height="15.85"/>
	</g>
</g>
<g>
	<g>
		<rect x="366.05" y="173.288" width="16.907" height="15.85"/>
	</g>
</g>
<g>
	<g>
		<rect x="391.411" y="173.288" width="16.907" height="15.85"/>
	</g>
</g>
<g>
	<g>
		<rect x="416.771" y="173.288" width="15.85" height="15.85"/>
	</g>
</g>
<g>
	<g>
		<rect x="441.075" y="173.288" width="16.907" height="15.85"/>
	</g>
</g>
<g>
	<g>
		<path d="M506.452,481.546L380.79,222.947H507.65V55.989H301.509l-18.438-36.611C277.352,7.603,265.207,0,252.115,0
			c-13.315,0-25.557,7.796-31.188,19.862L5.415,481.673c-3.49,7.48-2.397,16.083,2.856,22.452c5.253,6.37,13.491,9.082,21.497,7.079
			L236.22,459.59h31.571L482.4,511.391c1.691,0.408,3.389,0.608,5.066,0.608c6.305,0,12.303-2.814,16.408-7.905
			C509.072,497.649,510.062,489.015,506.452,481.546z M315.332,168.726V71.839H491.8v135.257H297.811L315.332,168.726z
			 M259.327,17.335c4.084,1.734,7.519,4.896,9.503,9.002L299.481,87.2v70.045c-11.842-8.219-25.68-13.276-40.154-14.562V17.335z
			 M243.476,443.741h-9.208L25.924,495.827c-2.957,0.739-4.778-1.003-5.424-1.787c-0.646-0.784-2.009-2.904-0.721-5.665
			L235.29,26.565c1.742-3.733,4.661-6.703,8.186-8.561v124.761c-41.936,4.276-74.766,39.799-74.766,82.845
			c0,40.203,63.201,149.057,74.766,168.636V443.741z M184.561,225.609c0-37.18,30.248-67.427,67.428-67.427
			c15.985,0,31.375,5.723,43.466,15.913l-4.013,8.789c-10.624-9.822-24.628-15.435-39.453-15.435
			c-32.07,0-58.159,26.09-58.159,58.161c0,29.542,22.145,53.993,50.703,57.666v14.698h15.85v-14.817
			c28.105-4.082,49.765-28.328,49.765-57.547c0-0.888-0.024-1.775-0.065-2.663h9.259c0.035,0.889,0.073,1.777,0.073,2.663
			c0,29.219-43.764,110.904-67.427,151.81C228.324,336.518,184.561,254.838,184.561,225.609z M294.207,222.946
			c0.054,0.888,0.091,1.775,0.091,2.663c0,23.33-18.98,42.31-42.309,42.31s-42.309-18.98-42.309-42.31
			c0-23.33,18.98-42.31,42.309-42.31c12.594,0,24.374,5.568,32.375,15.084l-11.216,24.563H294.207z M491.536,494.143
			c-0.638,0.793-2.444,2.559-5.418,1.842l-216.441-52.244h-10.35v-47.513c7.354-12.356,75.94-128.738,75.94-170.617
			c0-0.886-0.018-1.774-0.047-2.663h27.946l129.022,265.511C493.518,491.211,492.176,493.35,491.536,494.143z"/>
	</g>
</g>
<g>
</g>
<g>
</g>
<g>
</g>
<g>
</g>
<g>
</g>
<g>
</g>
<g>
</g>
<g>
</g>
<g>
</g>
<g>
</g>
<g>
</g>
<g>
</g>
<g>
</g>
<g>
</g>
<g>
</g>
</svg>
