<?xml version="1.0" encoding="iso-8859-1"?>
<!-- Generator: Adobe Illustrator 19.0.0, SVG Export Plug-In . SVG Version: 6.00 Build 0)  -->
<svg version="1.1" id="Layer_1" xmlns="http://www.w3.org/2000/svg" xmlns:xlink="http://www.w3.org/1999/xlink" x="0px" y="0px"
	 viewBox="0 0 512 512" style="enable-background:new 0 0 512 512;" xml:space="preserve">
<g>
	<g>
		<rect x="259.84" y="243.922" width="15.761" height="15.761"/>
	</g>
</g>
<g>
	<g>
		<rect x="212.558" y="228.161" width="15.761" height="15.761"/>
	</g>
</g>
<g>
	<g>
		<rect x="165.276" y="212.4" width="15.761" height="15.761"/>
	</g>
</g>
<g>
	<g>
		<rect x="157.921" y="31.679" width="15.761" height="15.761"/>
	</g>
</g>
<g>
	<g>
		<path d="M369.662,433.46c-12.294-6.519-28.28-11.252-46.545-13.825V232.37c0-2.17,1.765-3.935,3.934-3.935
			c2.171,0,3.935,1.765,3.935,3.935v51.199c0,26.062,21.203,47.264,47.264,47.264h7.88v-73.808
			c0-54.283-22.919-105.972-63.014-142.4v-12.22h15.753V0h-212.68v102.405h39.085v12.827l-0.951,1.105
			c-29.877,34.856-46.331,79.325-46.331,125.216v72.186c0,17.226,13.448,31.944,29.979,32.809
			c6.937,0.362,13.821-1.594,19.516-5.454c4.469,12.385,15.93,21.227,29.298,21.227c6.488,0,12.524-1.972,17.542-5.349
			c4.317,12.25,16.05,21.056,29.81,21.056c5.78,0,11.203-1.561,15.868-4.283l0.081,45.89c-18.261,2.573-34.244,7.306-46.535,13.824
			c-11.107,5.889-24.346,16.096-24.346,31.276c0,26.945,44.024,47.264,102.402,47.264c58.379,0,102.402-20.32,102.402-47.264
			C394.008,449.555,380.769,439.349,369.662,433.46z M141.949,86.644V15.761H323.11v70.884H141.949z M259.955,346.453
			c0,8.721-7.096,15.815-15.819,15.815c-8.723,0-15.819-7.037-15.819-15.695l-0.021-15.758l0.299-70.842l-15.761-0.067
			l-0.299,70.853l6.784,0.028l-6.784,0.004c0,8.695-7.065,15.769-15.75,15.769c-8.389,0-15.503-7.738-15.535-16.836l0.064-14.354
			c0.001-0.094,0.001-0.187,0.001-0.281l0.019-70.904l-15.761-0.004l-0.019,70.87l-0.001,0.195
			c-0.042,4.255-1.783,8.225-4.911,11.193c-3.213,3.049-7.414,4.608-11.848,4.369c-8.294-0.434-15.042-8.093-15.042-17.071v-72.186
			c0-42.13,15.106-82.958,42.527-114.947l0.317-0.369h28.604v-15.761h-24.166v-8.072h126.322v19.327l2.691,2.355
			c38.335,33.545,60.322,81.999,60.322,132.939v57.049c-13.57-3.508-23.623-15.855-23.623-30.506v-51.199
			c0-10.86-8.835-19.695-19.695-19.695s-19.694,8.835-19.694,19.695v194.319c0,4.364-1.744,8.422-4.911,11.427
			c-3.164,3.002-7.322,4.524-11.699,4.301c-8.212-0.431-14.892-8.085-14.892-17.078l-0.14-78.883l0.14-70.747l-15.761-0.03
			l-0.14,70.761l5.434,0.011L259.955,346.453z M337.498,464.744c-5.321,3.272-21.21,7.865-45.892,7.865
			c-24.681,0-40.572-4.593-45.893-7.865c4.624-2.816,17.388-6.779,37.575-7.69c2.129,0.6,4.346,0.981,6.634,1.101
			c0.573,0.029,1.142,0.044,1.711,0.044c2.884,0,5.706-0.392,8.415-1.139C320.163,457.983,332.883,461.934,337.498,464.744z
			 M291.606,496.239c-49.588,0-86.641-16.633-86.641-31.503c0-10.818,21.018-24.238,56.615-29.398
			c0.826,2.715,1.977,5.279,3.413,7.639c-13.101,1.939-28.236,5.95-34.002,14.234h-10.029v15.761h10.541
			c11.645,14.902,54.537,15.398,60.104,15.398s48.459-0.497,60.104-15.398h11.098v-15.761h-10.585
			c-5.721-8.219-20.66-12.23-33.689-14.187c1.447-2.39,2.57-4.966,3.343-7.649c35.449,5.185,56.372,18.568,56.372,29.361
			C378.247,479.607,341.195,496.239,291.606,496.239z"/>
	</g>
</g>
<g>
</g>
<g>
</g>
<g>
</g>
<g>
</g>
<g>
</g>
<g>
</g>
<g>
</g>
<g>
</g>
<g>
</g>
<g>
</g>
<g>
</g>
<g>
</g>
<g>
</g>
<g>
</g>
<g>
</g>
</svg>
