<?xml version="1.0" encoding="iso-8859-1"?>
<!-- Generator: Adobe Illustrator 19.0.0, SVG Export Plug-In . SVG Version: 6.00 Build 0)  -->
<svg version="1.1" id="Layer_1" xmlns="http://www.w3.org/2000/svg" xmlns:xlink="http://www.w3.org/1999/xlink" x="0px" y="0px"
	 viewBox="0 0 512 512" style="enable-background:new 0 0 512 512;" xml:space="preserve">
<g>
	<g>
		<path d="M0,0v128h73.56c3.3,9.191,12.1,15.785,22.414,15.785h16.003c10.313,0,19.113-6.594,22.412-15.785h49.806V0H0z
			 M111.977,128.175H95.974c-4.521,0-8.198-3.677-8.198-8.197c0-4.442,3.553-8.061,7.964-8.187v7.884h15.61v-7.895h0.628
			c4.521,0,8.197,3.678,8.197,8.198C120.173,124.498,116.497,128.175,111.977,128.175z M95.777,47.966
			c0-4.521,3.677-8.198,8.197-8.198c4.521,0,8.198,3.678,8.198,8.198c0,4.521-3.678,8.198-8.198,8.198
			C99.454,56.164,95.777,52.486,95.777,47.966z M168.585,112.39h-34.049c-3.176-9.418-12.085-16.221-22.56-16.221h-0.626V70.599
			c9.528-3.113,16.433-12.079,16.433-22.633c0-13.128-10.68-23.808-23.808-23.808c-13.127,0-23.807,10.68-23.807,23.808
			c0,10.235,6.492,18.979,15.572,22.339v25.872c-10.373,0.101-19.175,6.867-22.327,16.214H15.61V15.61h152.976V112.39z"/>
	</g>
</g>
<g>
	<g>
		<path d="M407.829,384c-0.011-13.118-10.686-23.786-23.807-23.786S360.226,370.883,360.215,384H272.65v128H512V384H407.829z
			 M392.325,447.851c4.379,0.161,7.895,3.765,7.895,8.183c0,4.521-3.678,8.197-8.198,8.197H376.02c-4.521,0-8.198-3.677-8.198-8.197
			c0-4.521,3.678-8.198,8.198-8.198h0.695v7.969h15.61V447.851z M384.022,375.824c4.521,0,8.198,3.678,8.198,8.198
			s-3.678,8.198-8.198,8.198s-8.198-3.678-8.198-8.198S379.501,375.824,384.022,375.824z M496.39,496.39H288.26V399.61h77.789
			c2.816,3.242,6.488,5.717,10.667,7.068v25.548h-0.695c-13.128,0-23.808,10.68-23.808,23.808c0,13.127,10.68,23.807,23.808,23.807
			h16.002c13.128,0,23.808-10.68,23.808-23.807c0-13.027-10.517-23.636-23.505-23.8v-25.902c3.765-1.406,7.078-3.741,9.669-6.723
			h94.396V496.39z"/>
	</g>
</g>
<g>
	<g>
		<path d="M216.455,0v128H512V0H216.455z M496.39,112.39H232.065V15.61H496.39V112.39z"/>
	</g>
</g>
<g>
	<g>
		<path d="M232.192,136.176v191.639h132.593l19.236,19.235l19.235-19.235h44.578V136.176H232.192z M432.226,312.206h-35.434
			l-12.77,12.771l-12.771-12.771H247.802V151.786h184.424V312.206z"/>
	</g>
</g>
<g>
	<g>
		<path d="M134.467,327.805h80.948v-143.61H0v143.61h89.486c2.373,6.828,7.768,12.25,14.58,14.656v25.754h-0.091
			c-10.313,0-19.113,6.594-22.412,15.785H0v128h215.415V384H142.39c-3.3-9.191-12.1-15.785-22.412-15.785h-0.303v-25.682
			C126.586,340.164,132.069,334.702,134.467,327.805z M89.494,312.195H15.61v-112.39h184.195v112.39h-65.346
			c-3.242-9.298-12.093-15.992-22.483-15.992S92.735,302.897,89.494,312.195z M142.538,399.61h57.267v96.781H15.61V399.61h65.805
			c3.176,9.418,12.085,16.221,22.56,16.221h16.003C130.452,415.83,139.362,409.028,142.538,399.61z M119.978,383.825
			c4.521,0,8.197,3.677,8.197,8.197c0,4.521-3.677,8.198-8.197,8.198h-16.003c-4.521,0-8.197-3.678-8.197-8.198
			s3.677-8.197,8.197-8.197h0.091v8.5h15.61v-8.5H119.978z M111.976,328.209c-4.521,0-8.197-3.678-8.197-8.198
			s3.677-8.197,8.197-8.197s8.198,3.677,8.198,8.197C120.173,324.53,116.496,328.209,111.976,328.209z"/>
	</g>
</g>
<g>
	<g>
		<polygon points="455.805,184.195 455.805,199.805 496.39,199.805 496.39,312.195 455.805,312.195 455.805,327.805 512,327.805 
			512,184.195 		"/>
	</g>
</g>
<g>
	<g>
		<rect x="264.325" y="168.585" width="119.675" height="15.61"/>
	</g>
</g>
<g>
	<g>
		<rect x="264.325" y="192.52" width="31.22" height="15.61"/>
	</g>
</g>
<g>
	<g>
		<rect x="264.325" y="279.935" width="15.61" height="15.61"/>
	</g>
</g>
<g>
	<g>
		<rect x="288.26" y="279.935" width="15.61" height="15.61"/>
	</g>
</g>
<g>
	<g>
		<rect x="312.195" y="279.935" width="15.61" height="15.61"/>
	</g>
</g>
<g>
	<g>
		<rect x="336.13" y="279.935" width="15.61" height="15.61"/>
	</g>
</g>
<g>
	<g>
		<rect x="360.065" y="279.935" width="15.61" height="15.61"/>
	</g>
</g>
<g>
	<g>
		<rect x="264.325" y="216.455" width="151.935" height="15.61"/>
	</g>
</g>
<g>
	<g>
		<rect x="264.325" y="240.39" width="47.87" height="15.61"/>
	</g>
</g>
<g>
	<g>
		<rect x="320.52" y="240.39" width="23.935" height="15.61"/>
	</g>
</g>
<g>
	<g>
		<rect x="351.74" y="240.39" width="64.52" height="15.61"/>
	</g>
</g>
<g>
</g>
<g>
</g>
<g>
</g>
<g>
</g>
<g>
</g>
<g>
</g>
<g>
</g>
<g>
</g>
<g>
</g>
<g>
</g>
<g>
</g>
<g>
</g>
<g>
</g>
<g>
</g>
<g>
</g>
</svg>
