<?xml version="1.0" encoding="iso-8859-1"?>
<!-- Generator: Adobe Illustrator 19.0.0, SVG Export Plug-In . SVG Version: 6.00 Build 0)  -->
<svg version="1.1" id="Layer_1" xmlns="http://www.w3.org/2000/svg" xmlns:xlink="http://www.w3.org/1999/xlink" x="0px" y="0px"
	 viewBox="0 0 512 512" style="enable-background:new 0 0 512 512;" xml:space="preserve">
<g>
	<g>
		<path d="M256,64.166C150.223,64.166,64.166,150.223,64.166,256S150.223,447.834,256,447.834S447.834,361.777,447.834,256
			S361.777,64.166,256,64.166z M263.314,431.997V280.033h-15.673v151.925c-90.498-4.25-163.349-77.101-167.599-167.599h151.925
			v-15.673H80.003C83.852,154.93,161.316,79.84,256,79.84s172.147,75.091,175.997,168.846H280.033v15.673h151.925
			C427.692,355.205,354.295,428.262,263.314,431.997z"/>
	</g>
</g>
<g>
	<g>
		<path d="M487.707,248.686c-1.822-59.183-25.718-114.558-67.776-156.617c-42.058-42.059-97.434-65.954-156.617-67.776V0h-15.673
			v24.33C188.852,26.4,133.88,50.257,92.069,92.069c-42.059,42.058-65.954,97.434-67.776,156.617H0v15.673h24.33
			c2.07,58.789,25.927,113.761,67.739,155.572c41.811,41.812,96.783,65.668,155.572,67.739V512h15.673v-24.293
			c59.183-1.822,114.558-25.718,156.617-67.776c41.812-41.811,65.668-96.783,67.739-155.572H512v-15.673H487.707z M471.984,264.359
			c-4.316,112.904-95.63,203.885-208.669,207.664v-8.089h-15.673v8.049C135.085,467.68,44.32,376.916,40.016,264.359h8.049v-15.673
			h-8.089c3.779-113.039,94.76-204.352,207.664-208.669v8.049h15.673v-8.089c113.387,3.791,204.918,95.322,208.709,208.709h-8.089
			v15.673H471.984z"/>
	</g>
</g>
<g>
	<g>
		<rect x="247.641" y="248.686" width="16.718" height="15.673"/>
	</g>
</g>
<g>
	<g>
		<rect x="216.294" y="168.229" width="15.673" height="15.673"/>
	</g>
</g>
<g>
	<g>
		<rect x="247.641" y="168.229" width="16.718" height="15.673"/>
	</g>
</g>
<g>
	<g>
		<rect x="280.033" y="168.229" width="15.673" height="15.673"/>
	</g>
</g>
<g>
</g>
<g>
</g>
<g>
</g>
<g>
</g>
<g>
</g>
<g>
</g>
<g>
</g>
<g>
</g>
<g>
</g>
<g>
</g>
<g>
</g>
<g>
</g>
<g>
</g>
<g>
</g>
<g>
</g>
</svg>
