<?xml version="1.0" encoding="iso-8859-1"?>
<!-- Generator: Adobe Illustrator 19.0.0, SVG Export Plug-In . SVG Version: 6.00 Build 0)  -->
<svg version="1.1" id="Layer_1" xmlns="http://www.w3.org/2000/svg" xmlns:xlink="http://www.w3.org/1999/xlink" x="0px" y="0px"
	 viewBox="0 0 512 512" style="enable-background:new 0 0 512 512;" xml:space="preserve">
<g>
	<g>
		<path d="M504.082,245.964l-165.659-26.186l59.852-90.277c3.235-4.878,2.591-11.165-1.562-15.287
			c-4.156-4.124-10.448-4.718-15.299-1.446l-89.718,60.469L264.491,7.862C263.742,3.302,259.852,0,255.233,0c-0.01,0-0.02,0-0.03,0
			c-4.631,0.015-8.517,3.345-9.239,7.918l-26.057,164.838l-89.005-59.989c-4.852-3.273-11.144-2.678-15.298,1.445
			c-4.154,4.123-4.797,10.409-1.563,15.288l59.823,90.233L7.917,245.965c-4.574,0.723-7.903,4.609-7.917,9.238
			c-0.015,4.63,3.29,8.536,7.86,9.288l165.49,27.224l-59.31,89.462c-3.234,4.878-2.591,11.165,1.563,15.287
			c2.364,2.346,5.417,3.55,8.504,3.548c2.341,0,4.701-0.692,6.794-2.102l88.817-59.862l26.246,166.033
			c0.722,4.575,4.608,7.905,9.24,7.919c0.01,0,0.019,0,0.029,0c4.617,0,8.509-3.302,9.258-7.86l27.4-166.567l89.522,60.338
			c2.093,1.411,4.452,2.102,6.794,2.101c3.088,0,6.143-1.204,8.505-3.549c4.155-4.123,4.796-10.409,1.562-15.286l-59.341-89.508
			l165.207-27.177c4.568-0.751,7.874-4.658,7.86-9.288C511.985,250.574,508.656,246.688,504.082,245.964z M48.886,255.356
			l162.012-25.61l-2.691,17.02l-0.096,0.607v1.312h-40.928v15.673h40.928v0.266l2.747,17.376L48.886,255.356z M137.013,374.889
			l53.293-80.385l13.832,2.276l-15.985,15.985l11.082,11.082l15.748-15.748l2.034,12.867L137.013,374.889z M214.984,203.901
			l-15.748-15.748l-11.082,11.082l15.748,15.748l-13.018,2.058l-53.87-81.254l80.194,54.05L214.984,203.901z M255.355,48.888
			L282,210.858l-16.767-2.651l-0.608-0.096h-1.31v-40.928h-15.673v40.928h-0.266l-17.628,2.787L255.355,48.888z M255.356,463.113
			l-25.628-162.124l16.99,2.795l0.632,0.104h0.29v40.928h15.673v-40.928h1.335l17.369-2.857L255.356,463.113z M256,288.215
			c-17.763,0-32.215-14.452-32.215-32.215s14.452-32.215,32.215-32.215s32.214,14.452,32.214,32.215S273.763,288.215,256,288.215z
			 M375.301,135.787l-53.899,81.299l-13.303-2.102l15.748-15.748l-11.083-11.082l-15.984,15.985l-2.284-13.888L375.301,135.787z
			 M375.301,374.89l-80.611-54.332l2.089-12.695l15.984,15.984l11.083-11.082l-15.985-15.985l14.116-2.322L375.301,374.89z
			 M301.03,282.02l2.753-16.737l0.104-0.631v-0.293h40.929v-15.673h-40.929v-1.336l-2.899-17.621l162.125,25.628L301.03,282.02z"/>
	</g>
</g>
<g>
	<g>
		<path d="M256,232.143c-13.155,0-23.857,10.702-23.857,23.857s10.702,23.858,23.857,23.858s23.857-10.703,23.857-23.858
			S269.155,232.143,256,232.143z M256,264.185c-4.512,0-8.184-3.672-8.184-8.185c0-4.512,3.672-8.184,8.184-8.184
			s8.184,3.672,8.184,8.184C264.184,260.513,260.512,264.185,256,264.185z"/>
	</g>
</g>
<g>
</g>
<g>
</g>
<g>
</g>
<g>
</g>
<g>
</g>
<g>
</g>
<g>
</g>
<g>
</g>
<g>
</g>
<g>
</g>
<g>
</g>
<g>
</g>
<g>
</g>
<g>
</g>
<g>
</g>
</svg>
